<svg xmlns="http://www.w3.org/2000/svg" viewBox="0 0 250 236" font-family="'Segoe UI',system-ui,sans-serif"><text x="20" y="15" font-size="13" font-weight="800" fill="#2b3038" text-anchor="start">Path 5a</text><text x="20" y="30" font-size="8.5" font-weight="400" fill="#6b7280" text-anchor="start">내·외 4면 + 내측 인장</text><rect x="20.0" y="46.0" width="168.8" height="60.9" fill="#f1f3f7" stroke="#5b6675" stroke-width="1.2"/><rect x="20.0" y="151.1" width="168.8" height="60.9" fill="#f1f3f7" stroke="#5b6675" stroke-width="1.2"/><rect x="20" y="106.86666666666667" width="168.8" height="44.3" fill="#2b3038" opacity="0.62"/><text x="104.4" y="132.0" font-size="8" font-weight="700" fill="#fff" text-anchor="middle">WEB</text><polygon points="20.0,93.0 166.6,93.0 141.7,65.4 20.0,65.4" fill="#f5b847" fill-opacity="0.22"/><line x1="20.0" y1="86.0" x2="27.0" y2="93.0" stroke="#e0a92e" stroke-width="0.8"/><line x1="20.0" y1="79.0" x2="34.0" y2="93.0" stroke="#e0a92e" stroke-width="0.8"/><line x1="20.0" y1="72.0" x2="41.0" y2="93.0" stroke="#e0a92e" stroke-width="0.8"/><line x1="20.3" y1="65.4" x2="48.0" y2="93.0" stroke="#e0a92e" stroke-width="0.8"/><line x1="27.3" y1="65.4" x2="55.0" y2="93.0" stroke="#e0a92e" stroke-width="0.8"/><line x1="34.3" y1="65.4" x2="62.0" y2="93.0" stroke="#e0a92e" stroke-width="0.8"/><line x1="41.3" y1="65.4" x2="69.0" y2="93.0" stroke="#e0a92e" stroke-width="0.8"/><line x1="48.3" y1="65.4" x2="76.0" y2="93.0" stroke="#e0a92e" stroke-width="0.8"/><line x1="55.3" y1="65.4" x2="83.0" y2="93.0" stroke="#e0a92e" stroke-width="0.8"/><line x1="62.3" y1="65.4" x2="90.0" y2="93.0" stroke="#e0a92e" stroke-width="0.8"/><line x1="69.3" y1="65.4" x2="97.0" y2="93.0" stroke="#e0a92e" stroke-width="0.8"/><line x1="76.3" y1="65.4" x2="104.0" y2="93.0" stroke="#e0a92e" stroke-width="0.8"/><line x1="83.3" y1="65.4" x2="111.0" y2="93.0" stroke="#e0a92e" stroke-width="0.8"/><line x1="90.3" y1="65.4" x2="118.0" y2="93.0" stroke="#e0a92e" stroke-width="0.8"/><line x1="97.3" y1="65.4" x2="125.0" y2="93.0" stroke="#e0a92e" stroke-width="0.8"/><line x1="104.3" y1="65.4" x2="132.0" y2="93.0" stroke="#e0a92e" stroke-width="0.8"/><line x1="111.3" y1="65.4" x2="139.0" y2="93.0" stroke="#e0a92e" stroke-width="0.8"/><line x1="118.3" y1="65.4" x2="146.0" y2="93.0" stroke="#e0a92e" stroke-width="0.8"/><line x1="125.3" y1="65.4" x2="153.0" y2="93.0" stroke="#e0a92e" stroke-width="0.8"/><line x1="132.3" y1="65.4" x2="160.0" y2="93.0" stroke="#e0a92e" stroke-width="0.8"/><line x1="139.3" y1="65.4" x2="163.3" y2="89.4" stroke="#e0a92e" stroke-width="0.8"/><polygon points="20.0,93.0 166.6,93.0 141.7,65.4 20.0,65.4" fill="none" stroke="#e0a92e" stroke-width="1.1" stroke-dasharray="3 2"/><polygon points="20.0,192.6 141.7,192.6 166.6,165.0 20.0,165.0" fill="#f5b847" fill-opacity="0.22"/><line x1="20.0" y1="185.6" x2="27.0" y2="192.6" stroke="#e0a92e" stroke-width="0.8"/><line x1="20.0" y1="178.6" x2="34.0" y2="192.6" stroke="#e0a92e" stroke-width="0.8"/><line x1="20.0" y1="171.6" x2="41.0" y2="192.6" stroke="#e0a92e" stroke-width="0.8"/><line x1="20.3" y1="165.0" x2="48.0" y2="192.6" stroke="#e0a92e" stroke-width="0.8"/><line x1="27.3" y1="165.0" x2="55.0" y2="192.6" stroke="#e0a92e" stroke-width="0.8"/><line x1="34.3" y1="165.0" x2="62.0" y2="192.6" stroke="#e0a92e" stroke-width="0.8"/><line x1="41.3" y1="165.0" x2="69.0" y2="192.6" stroke="#e0a92e" stroke-width="0.8"/><line x1="48.3" y1="165.0" x2="76.0" y2="192.6" stroke="#e0a92e" stroke-width="0.8"/><line x1="55.3" y1="165.0" x2="83.0" y2="192.6" stroke="#e0a92e" stroke-width="0.8"/><line x1="62.3" y1="165.0" x2="90.0" y2="192.6" stroke="#e0a92e" stroke-width="0.8"/><line x1="69.3" y1="165.0" x2="97.0" y2="192.6" stroke="#e0a92e" stroke-width="0.8"/><line x1="76.3" y1="165.0" x2="104.0" y2="192.6" stroke="#e0a92e" stroke-width="0.8"/><line x1="83.3" y1="165.0" x2="111.0" y2="192.6" stroke="#e0a92e" stroke-width="0.8"/><line x1="90.3" y1="165.0" x2="118.0" y2="192.6" stroke="#e0a92e" stroke-width="0.8"/><line x1="97.3" y1="165.0" x2="125.0" y2="192.6" stroke="#e0a92e" stroke-width="0.8"/><line x1="104.3" y1="165.0" x2="132.0" y2="192.6" stroke="#e0a92e" stroke-width="0.8"/><line x1="111.3" y1="165.0" x2="139.0" y2="192.6" stroke="#e0a92e" stroke-width="0.8"/><line x1="118.3" y1="165.0" x2="143.8" y2="190.4" stroke="#e0a92e" stroke-width="0.8"/><line x1="125.3" y1="165.0" x2="147.1" y2="186.7" stroke="#e0a92e" stroke-width="0.8"/><line x1="132.3" y1="165.0" x2="150.4" y2="183.0" stroke="#e0a92e" stroke-width="0.8"/><line x1="139.3" y1="165.0" x2="153.7" y2="179.3" stroke="#e0a92e" stroke-width="0.8"/><line x1="146.3" y1="165.0" x2="157.0" y2="175.7" stroke="#e0a92e" stroke-width="0.8"/><line x1="153.3" y1="165.0" x2="160.3" y2="172.0" stroke="#e0a92e" stroke-width="0.8"/><line x1="160.3" y1="165.0" x2="163.6" y2="168.3" stroke="#e0a92e" stroke-width="0.8"/><polygon points="20.0,192.6 141.7,192.6 166.6,165.0 20.0,165.0" fill="none" stroke="#e0a92e" stroke-width="1.1" stroke-dasharray="3 2"/><circle cx="42.1" cy="192.6" r="4.2" fill="none" stroke="#2b3038" stroke-width="1.5"/><circle cx="91.9" cy="192.6" r="4.2" fill="none" stroke="#2b3038" stroke-width="1.5"/><circle cx="141.7" cy="192.6" r="4.2" fill="none" stroke="#2b3038" stroke-width="1.5"/><circle cx="67.0" cy="165.0" r="4.2" fill="none" stroke="#2b3038" stroke-width="1.5"/><circle cx="116.8" cy="165.0" r="4.2" fill="none" stroke="#2b3038" stroke-width="1.5"/><circle cx="166.6" cy="165.0" r="4.2" fill="none" stroke="#2b3038" stroke-width="1.5"/><circle cx="67.0" cy="93.0" r="4.2" fill="none" stroke="#2b3038" stroke-width="1.5"/><circle cx="116.8" cy="93.0" r="4.2" fill="none" stroke="#2b3038" stroke-width="1.5"/><circle cx="166.6" cy="93.0" r="4.2" fill="none" stroke="#2b3038" stroke-width="1.5"/><circle cx="42.1" cy="65.4" r="4.2" fill="none" stroke="#2b3038" stroke-width="1.5"/><circle cx="91.9" cy="65.4" r="4.2" fill="none" stroke="#2b3038" stroke-width="1.5"/><circle cx="141.7" cy="65.4" r="4.2" fill="none" stroke="#2b3038" stroke-width="1.5"/><line x1="20.0" y1="65.4" x2="141.7" y2="65.4" stroke="#d1495b" stroke-width="2.4" stroke-linecap="round"/><line x1="20.0" y1="93.0" x2="166.6" y2="93.0" stroke="#d1495b" stroke-width="2.4" stroke-linecap="round"/><line x1="20.0" y1="165.0" x2="166.6" y2="165.0" stroke="#d1495b" stroke-width="2.4" stroke-linecap="round"/><line x1="20.0" y1="192.6" x2="141.7" y2="192.6" stroke="#d1495b" stroke-width="2.4" stroke-linecap="round"/><polyline points="166.6,93.0 141.7,65.4" fill="none" stroke="#2c6fbb" stroke-width="2.4" stroke-dasharray="5 3" stroke-linecap="round" stroke-linejoin="round"/><polyline points="141.7,192.6 166.6,165.0" fill="none" stroke="#2c6fbb" stroke-width="2.4" stroke-dasharray="5 3" stroke-linecap="round" stroke-linejoin="round"/><line x1="188.8" y1="41.0" x2="188.8" y2="217.0" stroke="#8b93a0" stroke-width="1" stroke-dasharray="8 3 2 3"/><text x="188.76666666666668" y="38" font-size="8" font-weight="400" fill="#8b93a0" text-anchor="middle">이음 ℄</text><line x1="16.0" y1="129.0" x2="18.0" y2="129.0" stroke="#12a794" stroke-width="3.5" stroke-linecap="round"/><path d="M18,129 l10,-6 v12 z" fill="#12a794"/><text x="22" y="121" font-size="11" font-weight="800" fill="#12a794" text-anchor="start">Pf</text></svg>