<svg xmlns="http://www.w3.org/2000/svg" viewBox="0 0 250 234" font-family="'Segoe UI',system-ui,sans-serif"><text x="20" y="16" font-size="13" font-weight="800" fill="#2b3038" text-anchor="start">Path 4</text><text x="20" y="31" font-size="9" font-weight="400" fill="#6b7280" text-anchor="start">전단2면·판외측연단 · U0.5</text><rect x="20.0" y="51.3" width="210.0" height="56.5" fill="#f1f3f7" stroke="#5b6675" stroke-width="1.2"/><rect x="20.0" y="148.2" width="210.0" height="56.5" fill="#f1f3f7" stroke="#5b6675" stroke-width="1.2"/><rect x="20" y="109.42307692307692" width="210.0" height="37.2" fill="#2b3038" opacity="0.62"/><text x="125" y="131" font-size="8" font-weight="700" fill="#fff" text-anchor="middle">WEB</text><polygon points="20.0,79.5 197.7,79.5 197.7,51.3 20.0,51.3" fill="#f5b847" fill-opacity="0.22"/><line x1="20.0" y1="72.5" x2="27.0" y2="79.5" stroke="#e0a92e" stroke-width="0.8"/><line x1="20.0" y1="65.5" x2="34.0" y2="79.5" stroke="#e0a92e" stroke-width="0.8"/><line x1="20.0" y1="58.5" x2="41.0" y2="79.5" stroke="#e0a92e" stroke-width="0.8"/><line x1="20.0" y1="51.5" x2="48.0" y2="79.5" stroke="#e0a92e" stroke-width="0.8"/><line x1="26.7" y1="51.3" x2="55.0" y2="79.5" stroke="#e0a92e" stroke-width="0.8"/><line x1="33.7" y1="51.3" x2="62.0" y2="79.5" stroke="#e0a92e" stroke-width="0.8"/><line x1="40.7" y1="51.3" x2="69.0" y2="79.5" stroke="#e0a92e" stroke-width="0.8"/><line x1="47.7" y1="51.3" x2="76.0" y2="79.5" stroke="#e0a92e" stroke-width="0.8"/><line x1="54.7" y1="51.3" x2="83.0" y2="79.5" stroke="#e0a92e" stroke-width="0.8"/><line x1="61.7" y1="51.3" x2="90.0" y2="79.5" stroke="#e0a92e" stroke-width="0.8"/><line x1="68.7" y1="51.3" x2="97.0" y2="79.5" stroke="#e0a92e" stroke-width="0.8"/><line x1="75.7" y1="51.3" x2="104.0" y2="79.5" stroke="#e0a92e" stroke-width="0.8"/><line x1="82.7" y1="51.3" x2="111.0" y2="79.5" stroke="#e0a92e" stroke-width="0.8"/><line x1="89.7" y1="51.3" x2="118.0" y2="79.5" stroke="#e0a92e" stroke-width="0.8"/><line x1="96.7" y1="51.3" x2="125.0" y2="79.5" stroke="#e0a92e" stroke-width="0.8"/><line x1="103.7" y1="51.3" x2="132.0" y2="79.5" stroke="#e0a92e" stroke-width="0.8"/><line x1="110.7" y1="51.3" x2="139.0" y2="79.5" stroke="#e0a92e" stroke-width="0.8"/><line x1="117.7" y1="51.3" x2="146.0" y2="79.5" stroke="#e0a92e" stroke-width="0.8"/><line x1="124.7" y1="51.3" x2="153.0" y2="79.5" stroke="#e0a92e" stroke-width="0.8"/><line x1="131.7" y1="51.3" x2="160.0" y2="79.5" stroke="#e0a92e" stroke-width="0.8"/><line x1="138.7" y1="51.3" x2="167.0" y2="79.5" stroke="#e0a92e" stroke-width="0.8"/><line x1="145.7" y1="51.3" x2="174.0" y2="79.5" stroke="#e0a92e" stroke-width="0.8"/><line x1="152.7" y1="51.3" x2="181.0" y2="79.5" stroke="#e0a92e" stroke-width="0.8"/><line x1="159.7" y1="51.3" x2="188.0" y2="79.5" stroke="#e0a92e" stroke-width="0.8"/><line x1="166.7" y1="51.3" x2="195.0" y2="79.5" stroke="#e0a92e" stroke-width="0.8"/><line x1="173.7" y1="51.3" x2="197.7" y2="75.2" stroke="#e0a92e" stroke-width="0.8"/><line x1="180.7" y1="51.3" x2="197.7" y2="68.2" stroke="#e0a92e" stroke-width="0.8"/><line x1="187.7" y1="51.3" x2="197.7" y2="61.2" stroke="#e0a92e" stroke-width="0.8"/><line x1="194.7" y1="51.3" x2="197.7" y2="54.2" stroke="#e0a92e" stroke-width="0.8"/><polygon points="20.0,79.5 197.7,79.5 197.7,51.3 20.0,51.3" fill="none" stroke="#e0a92e" stroke-width="1.1" stroke-dasharray="3 2"/><polygon points="20.0,176.5 197.7,176.5 197.7,204.7 20.0,204.7" fill="#f5b847" fill-opacity="0.22"/><line x1="20.0" y1="197.7" x2="27.0" y2="204.7" stroke="#e0a92e" stroke-width="0.8"/><line x1="20.0" y1="190.7" x2="34.0" y2="204.7" stroke="#e0a92e" stroke-width="0.8"/><line x1="20.0" y1="183.7" x2="41.0" y2="204.7" stroke="#e0a92e" stroke-width="0.8"/><line x1="20.0" y1="176.7" x2="48.0" y2="204.7" stroke="#e0a92e" stroke-width="0.8"/><line x1="26.7" y1="176.5" x2="55.0" y2="204.7" stroke="#e0a92e" stroke-width="0.8"/><line x1="33.7" y1="176.5" x2="62.0" y2="204.7" stroke="#e0a92e" stroke-width="0.8"/><line x1="40.7" y1="176.5" x2="69.0" y2="204.7" stroke="#e0a92e" stroke-width="0.8"/><line x1="47.7" y1="176.5" x2="76.0" y2="204.7" stroke="#e0a92e" stroke-width="0.8"/><line x1="54.7" y1="176.5" x2="83.0" y2="204.7" stroke="#e0a92e" stroke-width="0.8"/><line x1="61.7" y1="176.5" x2="90.0" y2="204.7" stroke="#e0a92e" stroke-width="0.8"/><line x1="68.7" y1="176.5" x2="97.0" y2="204.7" stroke="#e0a92e" stroke-width="0.8"/><line x1="75.7" y1="176.5" x2="104.0" y2="204.7" stroke="#e0a92e" stroke-width="0.8"/><line x1="82.7" y1="176.5" x2="111.0" y2="204.7" stroke="#e0a92e" stroke-width="0.8"/><line x1="89.7" y1="176.5" x2="118.0" y2="204.7" stroke="#e0a92e" stroke-width="0.8"/><line x1="96.7" y1="176.5" x2="125.0" y2="204.7" stroke="#e0a92e" stroke-width="0.8"/><line x1="103.7" y1="176.5" x2="132.0" y2="204.7" stroke="#e0a92e" stroke-width="0.8"/><line x1="110.7" y1="176.5" x2="139.0" y2="204.7" stroke="#e0a92e" stroke-width="0.8"/><line x1="117.7" y1="176.5" x2="146.0" y2="204.7" stroke="#e0a92e" stroke-width="0.8"/><line x1="124.7" y1="176.5" x2="153.0" y2="204.7" stroke="#e0a92e" stroke-width="0.8"/><line x1="131.7" y1="176.5" x2="160.0" y2="204.7" stroke="#e0a92e" stroke-width="0.8"/><line x1="138.7" y1="176.5" x2="167.0" y2="204.7" stroke="#e0a92e" stroke-width="0.8"/><line x1="145.7" y1="176.5" x2="174.0" y2="204.7" stroke="#e0a92e" stroke-width="0.8"/><line x1="152.7" y1="176.5" x2="181.0" y2="204.7" stroke="#e0a92e" stroke-width="0.8"/><line x1="159.7" y1="176.5" x2="188.0" y2="204.7" stroke="#e0a92e" stroke-width="0.8"/><line x1="166.7" y1="176.5" x2="195.0" y2="204.7" stroke="#e0a92e" stroke-width="0.8"/><line x1="173.7" y1="176.5" x2="197.7" y2="200.4" stroke="#e0a92e" stroke-width="0.8"/><line x1="180.7" y1="176.5" x2="197.7" y2="193.4" stroke="#e0a92e" stroke-width="0.8"/><line x1="187.7" y1="176.5" x2="197.7" y2="186.4" stroke="#e0a92e" stroke-width="0.8"/><line x1="194.7" y1="176.5" x2="197.7" y2="179.4" stroke="#e0a92e" stroke-width="0.8"/><polygon points="20.0,176.5 197.7,176.5 197.7,204.7 20.0,204.7" fill="none" stroke="#e0a92e" stroke-width="1.1" stroke-dasharray="3 2"/><circle cx="52.3" cy="176.5" r="4.4" fill="none" stroke="#2b3038" stroke-width="1.5"/><circle cx="100.8" cy="176.5" r="4.4" fill="none" stroke="#2b3038" stroke-width="1.5"/><circle cx="149.2" cy="176.5" r="4.4" fill="none" stroke="#2b3038" stroke-width="1.5"/><circle cx="197.7" cy="176.5" r="4.4" fill="none" stroke="#2b3038" stroke-width="1.5"/><circle cx="52.3" cy="79.5" r="4.4" fill="none" stroke="#2b3038" stroke-width="1.5"/><circle cx="100.8" cy="79.5" r="4.4" fill="none" stroke="#2b3038" stroke-width="1.5"/><circle cx="149.2" cy="79.5" r="4.4" fill="none" stroke="#2b3038" stroke-width="1.5"/><circle cx="197.7" cy="79.5" r="4.4" fill="none" stroke="#2b3038" stroke-width="1.5"/><line x1="20.0" y1="79.5" x2="197.7" y2="79.5" stroke="#d1495b" stroke-width="2.6" stroke-linecap="round"/><line x1="20.0" y1="176.5" x2="197.7" y2="176.5" stroke="#d1495b" stroke-width="2.6" stroke-linecap="round"/><polyline points="197.7,79.5 197.7,51.3" fill="none" stroke="#2c6fbb" stroke-width="2.6" stroke-dasharray="5 3" stroke-linecap="round" stroke-linejoin="round"/><polyline points="197.7,176.5 197.7,204.7" fill="none" stroke="#2c6fbb" stroke-width="2.6" stroke-dasharray="5 3" stroke-linecap="round" stroke-linejoin="round"/><line x1="230.0" y1="42.2" x2="230.0" y2="213.8" stroke="#8b93a0" stroke-width="1" stroke-dasharray="8 3 2 3"/><text x="230" y="39.230769230769226" font-size="8" font-weight="400" fill="#8b93a0" text-anchor="middle">이음 ℄</text><line x1="16.0" y1="128.0" x2="18.0" y2="128.0" stroke="#12a794" stroke-width="3.5" stroke-linecap="round"/><path d="M18.0,128 l10,-6 v12 z" fill="#12a794"/><text x="22" y="120" font-size="11" font-weight="800" fill="#12a794" text-anchor="start">Pf</text></svg>