<svg xmlns="http://www.w3.org/2000/svg" viewBox="0 0 210 252" font-family="'Segoe UI',system-ui,sans-serif"><text x="14" y="16" font-size="13" font-weight="800" fill="#2b3038" text-anchor="start">웨브 이음판 Path 1</text><text x="14" y="31" font-size="9" font-weight="400" fill="#6b7280" text-anchor="start">한쪽 절반(이음면 기준)·전단1면·U1.0</text><rect x="75.3" y="44.0" width="80.7" height="178.0" fill="#f1f3f7" stroke="#5b6675" stroke-width="1.2"/><polygon points="119.7,44.0 156.0,44.0 156.0,199.8 119.7,199.8" fill="#f5b847" fill-opacity="0.22"/><line x1="119.7" y1="192.8" x2="126.7" y2="199.8" stroke="#e0a92e" stroke-width="0.8"/><line x1="119.7" y1="185.8" x2="133.7" y2="199.8" stroke="#e0a92e" stroke-width="0.8"/><line x1="119.7" y1="178.8" x2="140.7" y2="199.8" stroke="#e0a92e" stroke-width="0.8"/><line x1="119.7" y1="171.8" x2="147.7" y2="199.8" stroke="#e0a92e" stroke-width="0.8"/><line x1="119.7" y1="164.8" x2="154.7" y2="199.8" stroke="#e0a92e" stroke-width="0.8"/><line x1="119.7" y1="157.8" x2="156.0" y2="194.0" stroke="#e0a92e" stroke-width="0.8"/><line x1="119.7" y1="150.8" x2="156.0" y2="187.0" stroke="#e0a92e" stroke-width="0.8"/><line x1="119.7" y1="143.8" x2="156.0" y2="180.0" stroke="#e0a92e" stroke-width="0.8"/><line x1="119.7" y1="136.8" x2="156.0" y2="173.0" stroke="#e0a92e" stroke-width="0.8"/><line x1="119.7" y1="129.8" x2="156.0" y2="166.0" stroke="#e0a92e" stroke-width="0.8"/><line x1="119.7" y1="122.8" x2="156.0" y2="159.0" stroke="#e0a92e" stroke-width="0.8"/><line x1="119.7" y1="115.8" x2="156.0" y2="152.0" stroke="#e0a92e" stroke-width="0.8"/><line x1="119.7" y1="108.8" x2="156.0" y2="145.0" stroke="#e0a92e" stroke-width="0.8"/><line x1="119.7" y1="101.8" x2="156.0" y2="138.0" stroke="#e0a92e" stroke-width="0.8"/><line x1="119.7" y1="94.8" x2="156.0" y2="131.0" stroke="#e0a92e" stroke-width="0.8"/><line x1="119.7" y1="87.8" x2="156.0" y2="124.0" stroke="#e0a92e" stroke-width="0.8"/><line x1="119.7" y1="80.8" x2="156.0" y2="117.0" stroke="#e0a92e" stroke-width="0.8"/><line x1="119.7" y1="73.8" x2="156.0" y2="110.0" stroke="#e0a92e" stroke-width="0.8"/><line x1="119.7" y1="66.8" x2="156.0" y2="103.0" stroke="#e0a92e" stroke-width="0.8"/><line x1="119.7" y1="59.8" x2="156.0" y2="96.0" stroke="#e0a92e" stroke-width="0.8"/><line x1="119.7" y1="52.8" x2="156.0" y2="89.0" stroke="#e0a92e" stroke-width="0.8"/><line x1="119.7" y1="45.8" x2="156.0" y2="82.0" stroke="#e0a92e" stroke-width="0.8"/><line x1="125.0" y1="44.0" x2="156.0" y2="75.0" stroke="#e0a92e" stroke-width="0.8"/><line x1="132.0" y1="44.0" x2="156.0" y2="68.0" stroke="#e0a92e" stroke-width="0.8"/><line x1="139.0" y1="44.0" x2="156.0" y2="61.0" stroke="#e0a92e" stroke-width="0.8"/><line x1="146.0" y1="44.0" x2="156.0" y2="54.0" stroke="#e0a92e" stroke-width="0.8"/><line x1="153.0" y1="44.0" x2="156.0" y2="47.0" stroke="#e0a92e" stroke-width="0.8"/><polygon points="119.7,44.0 156.0,44.0 156.0,199.8 119.7,199.8" fill="none" stroke="#e0a92e" stroke-width="1.1" stroke-dasharray="3 2"/><circle cx="119.7" cy="66.3" r="4.4" fill="none" stroke="#2b3038" stroke-width="1.5"/><circle cx="119.7" cy="133.0" r="4.4" fill="none" stroke="#2b3038" stroke-width="1.5"/><circle cx="119.7" cy="199.8" r="4.4" fill="none" stroke="#2b3038" stroke-width="1.5"/><line x1="119.7" y1="44.0" x2="119.7" y2="199.8" stroke="#d1495b" stroke-width="2.6" stroke-linecap="round"/><line x1="119.7" y1="199.8" x2="156.0" y2="199.8" stroke="#2c6fbb" stroke-width="2.6" stroke-dasharray="5 3" stroke-linecap="round"/><line x1="156.0" y1="38.0" x2="156.0" y2="228.0" stroke="#8b93a0" stroke-width="1" stroke-dasharray="8 3 2 3"/><text x="154" y="237" font-size="8" font-weight="400" fill="#8b93a0" text-anchor="end">이음 ℄</text><line x1="51.3" y1="48.0" x2="51.3" y2="218.0" stroke="#12a794" stroke-width="3.5" stroke-linecap="round"/><path d="M51.34375,218.0 l-6,-10 h12 z" fill="#12a794"/><text x="37.34375" y="133" font-size="11" font-weight="800" fill="#12a794" text-anchor="start">Vu</text></svg>