<svg xmlns="http://www.w3.org/2000/svg" viewBox="0 0 250 232" font-family="'Segoe UI',system-ui,sans-serif"><text x="20" y="16" font-size="13" font-weight="800" fill="#2b3038" text-anchor="start">Path 6·7</text><text x="20" y="31" font-size="9.5" font-weight="400" fill="#6b7280" text-anchor="start">전단 2면·U1.0</text><rect x="20.0" y="44.0" width="164.7" height="162.0" fill="#f1f3f7" stroke="#5b6675" stroke-width="1.2"/><rect x="20.0" y="121.8" width="164.7" height="6.5" fill="#7b8695" stroke="none" stroke-width="1"/><rect x="20" y="121.76" width="164.7" height="6.5" fill="#000" opacity="0.55"/><text x="102.35000000000001" y="128" font-size="8" font-weight="700" fill="#fff" text-anchor="middle">WEB</text><polygon points="20.0,62.9 163.1,62.9 163.1,187.1 20.0,187.1" fill="#f5b847" fill-opacity="0.22"/><line x1="20.0" y1="180.1" x2="27.0" y2="187.1" stroke="#e0a92e" stroke-width="0.8"/><line x1="20.0" y1="173.1" x2="34.0" y2="187.1" stroke="#e0a92e" stroke-width="0.8"/><line x1="20.0" y1="166.1" x2="41.0" y2="187.1" stroke="#e0a92e" stroke-width="0.8"/><line x1="20.0" y1="159.1" x2="48.0" y2="187.1" stroke="#e0a92e" stroke-width="0.8"/><line x1="20.0" y1="152.1" x2="55.0" y2="187.1" stroke="#e0a92e" stroke-width="0.8"/><line x1="20.0" y1="145.1" x2="62.0" y2="187.1" stroke="#e0a92e" stroke-width="0.8"/><line x1="20.0" y1="138.1" x2="69.0" y2="187.1" stroke="#e0a92e" stroke-width="0.8"/><line x1="20.0" y1="131.1" x2="76.0" y2="187.1" stroke="#e0a92e" stroke-width="0.8"/><line x1="20.0" y1="124.1" x2="83.0" y2="187.1" stroke="#e0a92e" stroke-width="0.8"/><line x1="20.0" y1="117.1" x2="90.0" y2="187.1" stroke="#e0a92e" stroke-width="0.8"/><line x1="20.0" y1="110.1" x2="97.0" y2="187.1" stroke="#e0a92e" stroke-width="0.8"/><line x1="20.0" y1="103.1" x2="104.0" y2="187.1" stroke="#e0a92e" stroke-width="0.8"/><line x1="20.0" y1="96.1" x2="111.0" y2="187.1" stroke="#e0a92e" stroke-width="0.8"/><line x1="20.0" y1="89.1" x2="118.0" y2="187.1" stroke="#e0a92e" stroke-width="0.8"/><line x1="20.0" y1="82.1" x2="125.0" y2="187.1" stroke="#e0a92e" stroke-width="0.8"/><line x1="20.0" y1="75.1" x2="132.0" y2="187.1" stroke="#e0a92e" stroke-width="0.8"/><line x1="20.0" y1="68.1" x2="139.0" y2="187.1" stroke="#e0a92e" stroke-width="0.8"/><line x1="21.8" y1="62.9" x2="146.0" y2="187.1" stroke="#e0a92e" stroke-width="0.8"/><line x1="28.8" y1="62.9" x2="153.0" y2="187.1" stroke="#e0a92e" stroke-width="0.8"/><line x1="35.8" y1="62.9" x2="160.0" y2="187.1" stroke="#e0a92e" stroke-width="0.8"/><line x1="42.8" y1="62.9" x2="163.1" y2="183.2" stroke="#e0a92e" stroke-width="0.8"/><line x1="49.8" y1="62.9" x2="163.1" y2="176.2" stroke="#e0a92e" stroke-width="0.8"/><line x1="56.8" y1="62.9" x2="163.1" y2="169.2" stroke="#e0a92e" stroke-width="0.8"/><line x1="63.8" y1="62.9" x2="163.1" y2="162.2" stroke="#e0a92e" stroke-width="0.8"/><line x1="70.8" y1="62.9" x2="163.1" y2="155.2" stroke="#e0a92e" stroke-width="0.8"/><line x1="77.8" y1="62.9" x2="163.1" y2="148.2" stroke="#e0a92e" stroke-width="0.8"/><line x1="84.8" y1="62.9" x2="163.1" y2="141.2" stroke="#e0a92e" stroke-width="0.8"/><line x1="91.8" y1="62.9" x2="163.1" y2="134.2" stroke="#e0a92e" stroke-width="0.8"/><line x1="98.8" y1="62.9" x2="163.1" y2="127.2" stroke="#e0a92e" stroke-width="0.8"/><line x1="105.8" y1="62.9" x2="163.1" y2="120.2" stroke="#e0a92e" stroke-width="0.8"/><line x1="112.8" y1="62.9" x2="163.1" y2="113.2" stroke="#e0a92e" stroke-width="0.8"/><line x1="119.8" y1="62.9" x2="163.1" y2="106.2" stroke="#e0a92e" stroke-width="0.8"/><line x1="126.8" y1="62.9" x2="163.1" y2="99.2" stroke="#e0a92e" stroke-width="0.8"/><line x1="133.8" y1="62.9" x2="163.1" y2="92.2" stroke="#e0a92e" stroke-width="0.8"/><line x1="140.8" y1="62.9" x2="163.1" y2="85.2" stroke="#e0a92e" stroke-width="0.8"/><line x1="147.8" y1="62.9" x2="163.1" y2="78.2" stroke="#e0a92e" stroke-width="0.8"/><line x1="154.8" y1="62.9" x2="163.1" y2="71.2" stroke="#e0a92e" stroke-width="0.8"/><line x1="161.8" y1="62.9" x2="163.1" y2="64.2" stroke="#e0a92e" stroke-width="0.8"/><polygon points="20.0,62.9 163.1,62.9 163.1,187.1 20.0,187.1" fill="none" stroke="#e0a92e" stroke-width="1.1" stroke-dasharray="3 2"/><circle cx="41.6" cy="187.1" r="4.6" fill="none" stroke="#2b3038" stroke-width="1.5"/><circle cx="90.2" cy="187.1" r="4.6" fill="none" stroke="#2b3038" stroke-width="1.5"/><circle cx="138.8" cy="187.1" r="4.6" fill="none" stroke="#2b3038" stroke-width="1.5"/><circle cx="65.9" cy="160.1" r="4.6" fill="none" stroke="#8b93a0" stroke-width="0.9"/><circle cx="114.5" cy="160.1" r="4.6" fill="none" stroke="#8b93a0" stroke-width="0.9"/><circle cx="163.1" cy="160.1" r="4.6" fill="none" stroke="#8b93a0" stroke-width="0.9"/><circle cx="65.9" cy="89.9" r="4.6" fill="none" stroke="#8b93a0" stroke-width="0.9"/><circle cx="114.5" cy="89.9" r="4.6" fill="none" stroke="#8b93a0" stroke-width="0.9"/><circle cx="163.1" cy="89.9" r="4.6" fill="none" stroke="#8b93a0" stroke-width="0.9"/><circle cx="41.6" cy="62.9" r="4.6" fill="none" stroke="#2b3038" stroke-width="1.5"/><circle cx="90.2" cy="62.9" r="4.6" fill="none" stroke="#2b3038" stroke-width="1.5"/><circle cx="138.8" cy="62.9" r="4.6" fill="none" stroke="#2b3038" stroke-width="1.5"/><line x1="20.0" y1="187.1" x2="138.8" y2="187.1" stroke="#d1495b" stroke-width="2.6" stroke-linecap="round"/><line x1="20.0" y1="62.9" x2="138.8" y2="62.9" stroke="#d1495b" stroke-width="2.6" stroke-linecap="round"/><line x1="163.1" y1="62.9" x2="163.1" y2="187.1" stroke="#2c6fbb" stroke-width="2.6" stroke-dasharray="5 3" stroke-linecap="round"/><line x1="184.7" y1="38.0" x2="184.7" y2="212.0" stroke="#8b93a0" stroke-width="1" stroke-dasharray="8 3 2 3"/><text x="184.70000000000002" y="35" font-size="8" font-weight="400" fill="#8b93a0" text-anchor="middle">이음 ℄</text><line x1="16.0" y1="125.0" x2="18.0" y2="125.0" stroke="#12a794" stroke-width="3.5" stroke-linecap="round"/><path d="M18.0,125 l10,-6 v12 z" fill="#12a794"/><text x="22" y="117" font-size="11" font-weight="800" fill="#12a794" text-anchor="start">Pf</text></svg>