<svg xmlns="http://www.w3.org/2000/svg" viewBox="0 0 250 234" font-family="'Segoe UI',system-ui,sans-serif"><text x="20" y="16" font-size="13" font-weight="800" fill="#2b3038" text-anchor="start">Path 2b</text><text x="20" y="31" font-size="9" font-weight="400" fill="#6b7280" text-anchor="start">U·외측연단(상) · U1.0</text><rect x="20.0" y="46.0" width="166.7" height="164.0" fill="#f1f3f7" stroke="#5b6675" stroke-width="1.2"/><polygon points="20.0,92.5 164.9,92.5 140.3,65.1 140.3,46.0 20.0,46.0" fill="#f5b847" fill-opacity="0.22"/><line x1="20.0" y1="85.5" x2="27.0" y2="92.5" stroke="#e0a92e" stroke-width="0.8"/><line x1="20.0" y1="78.5" x2="34.0" y2="92.5" stroke="#e0a92e" stroke-width="0.8"/><line x1="20.0" y1="71.5" x2="41.0" y2="92.5" stroke="#e0a92e" stroke-width="0.8"/><line x1="20.0" y1="64.5" x2="48.0" y2="92.5" stroke="#e0a92e" stroke-width="0.8"/><line x1="20.0" y1="57.5" x2="55.0" y2="92.5" stroke="#e0a92e" stroke-width="0.8"/><line x1="20.0" y1="50.5" x2="62.0" y2="92.5" stroke="#e0a92e" stroke-width="0.8"/><line x1="22.5" y1="46.0" x2="69.0" y2="92.5" stroke="#e0a92e" stroke-width="0.8"/><line x1="29.5" y1="46.0" x2="76.0" y2="92.5" stroke="#e0a92e" stroke-width="0.8"/><line x1="36.5" y1="46.0" x2="83.0" y2="92.5" stroke="#e0a92e" stroke-width="0.8"/><line x1="43.5" y1="46.0" x2="90.0" y2="92.5" stroke="#e0a92e" stroke-width="0.8"/><line x1="50.5" y1="46.0" x2="97.0" y2="92.5" stroke="#e0a92e" stroke-width="0.8"/><line x1="57.5" y1="46.0" x2="104.0" y2="92.5" stroke="#e0a92e" stroke-width="0.8"/><line x1="64.5" y1="46.0" x2="111.0" y2="92.5" stroke="#e0a92e" stroke-width="0.8"/><line x1="71.5" y1="46.0" x2="118.0" y2="92.5" stroke="#e0a92e" stroke-width="0.8"/><line x1="78.5" y1="46.0" x2="125.0" y2="92.5" stroke="#e0a92e" stroke-width="0.8"/><line x1="85.5" y1="46.0" x2="132.0" y2="92.5" stroke="#e0a92e" stroke-width="0.8"/><line x1="92.5" y1="46.0" x2="139.0" y2="92.5" stroke="#e0a92e" stroke-width="0.8"/><line x1="99.5" y1="46.0" x2="146.0" y2="92.5" stroke="#e0a92e" stroke-width="0.8"/><line x1="106.5" y1="46.0" x2="153.0" y2="92.5" stroke="#e0a92e" stroke-width="0.8"/><line x1="113.5" y1="46.0" x2="160.0" y2="92.5" stroke="#e0a92e" stroke-width="0.8"/><line x1="120.5" y1="46.0" x2="145.7" y2="71.1" stroke="#e0a92e" stroke-width="0.8"/><line x1="127.5" y1="46.0" x2="140.3" y2="58.7" stroke="#e0a92e" stroke-width="0.8"/><line x1="134.5" y1="46.0" x2="140.3" y2="51.7" stroke="#e0a92e" stroke-width="0.8"/><polygon points="20.0,92.5 164.9,92.5 140.3,65.1 140.3,46.0 20.0,46.0" fill="none" stroke="#e0a92e" stroke-width="1.1" stroke-dasharray="3 2"/><circle cx="41.9" cy="190.9" r="4.4" fill="none" stroke="#8b93a0" stroke-width="0.9"/><circle cx="91.1" cy="190.9" r="4.4" fill="none" stroke="#8b93a0" stroke-width="0.9"/><circle cx="140.3" cy="190.9" r="4.4" fill="none" stroke="#8b93a0" stroke-width="0.9"/><circle cx="66.5" cy="163.5" r="4.4" fill="none" stroke="#8b93a0" stroke-width="0.9"/><circle cx="115.7" cy="163.5" r="4.4" fill="none" stroke="#8b93a0" stroke-width="0.9"/><circle cx="164.9" cy="163.5" r="4.4" fill="none" stroke="#8b93a0" stroke-width="0.9"/><circle cx="66.5" cy="92.5" r="4.4" fill="none" stroke="#2b3038" stroke-width="1.5"/><circle cx="115.7" cy="92.5" r="4.4" fill="none" stroke="#2b3038" stroke-width="1.5"/><circle cx="164.9" cy="92.5" r="4.4" fill="none" stroke="#2b3038" stroke-width="1.5"/><circle cx="41.9" cy="65.1" r="4.4" fill="none" stroke="#2b3038" stroke-width="1.5"/><circle cx="91.1" cy="65.1" r="4.4" fill="none" stroke="#2b3038" stroke-width="1.5"/><circle cx="140.3" cy="65.1" r="4.4" fill="none" stroke="#2b3038" stroke-width="1.5"/><line x1="20.0" y1="65.1" x2="140.3" y2="65.1" stroke="#d1495b" stroke-width="2.6" stroke-linecap="round"/><line x1="20.0" y1="92.5" x2="164.9" y2="92.5" stroke="#d1495b" stroke-width="2.6" stroke-linecap="round"/><polyline points="140.3,46.0 140.3,65.1 164.9,92.5" fill="none" stroke="#2c6fbb" stroke-width="2.6" stroke-dasharray="5 3" stroke-linecap="round" stroke-linejoin="round"/><line x1="186.7" y1="41.0" x2="186.7" y2="215.0" stroke="#8b93a0" stroke-width="1" stroke-dasharray="8 3 2 3"/><text x="186.73333333333332" y="38" font-size="8" font-weight="400" fill="#8b93a0" text-anchor="middle">이음 ℄</text><line x1="16.0" y1="128.0" x2="18.0" y2="128.0" stroke="#12a794" stroke-width="3.5" stroke-linecap="round"/><path d="M18.0,128 l10,-6 v12 z" fill="#12a794"/><text x="22" y="120" font-size="11" font-weight="800" fill="#12a794" text-anchor="start">Pf</text></svg>