<svg xmlns="http://www.w3.org/2000/svg" viewBox="0 0 380 500" font-family="'Segoe UI',system-ui,sans-serif"><text x="16" y="26" font-size="15" font-weight="800" fill="#2b3038" text-anchor="start">④ 웨브 이음판 (입면)</text><text x="16" y="44" font-size="11.5" font-weight="400" fill="#6b7280" text-anchor="start">H-400x400x13x21 · 웨브판 ×2매 · PL-22×260</text><rect x="52" y="78" width="276" height="9" fill="#d7dbe2" stroke="#8b93a0" stroke-width="0.8"/><rect x="52" y="373" width="276" height="9" fill="#d7dbe2" stroke="#8b93a0" stroke-width="0.8"/><text x="52" y="73" font-size="9" font-weight="400" fill="#8b93a0" text-anchor="start">상부 플랜지 (H형강)</text><text x="52" y="394" font-size="9" font-weight="400" fill="#8b93a0" text-anchor="start">하부 플랜지 (H형강)</text><line x1="190" y1="73" x2="190" y2="382" stroke="#8b93a0" stroke-width="1" stroke-dasharray="10 4 3 4"/><text x="195" y="69" font-size="9.5" font-weight="400" fill="#8b93a0" text-anchor="start">이음 ℄</text><rect x="64" y="104" width="252" height="252" fill="#f1f3f7" stroke="#e0a92e" stroke-width="2"/><line x1="64" y1="104" x2="316" y2="104" stroke="#2b3038" stroke-width="1.6"/><text x="322" y="107" font-size="9" font-weight="400" fill="#6b7280" text-anchor="start">자유단</text><polygon points="160.92307692307693,104 160.92307692307693,317.2307692307692 219.07692307692307,317.2307692307692 219.07692307692307,104" fill="#f5b847" fill-opacity="0.20"/><line x1="160.9" y1="213.2" x2="219.1" y2="271.4" stroke="#e0a92e" stroke-width="0.9" opacity="0.6"/><line x1="160.9" y1="204.7" x2="219.1" y2="262.9" stroke="#e0a92e" stroke-width="0.9" opacity="0.6"/><line x1="160.9" y1="196.2" x2="219.1" y2="254.4" stroke="#e0a92e" stroke-width="0.9" opacity="0.6"/><line x1="160.9" y1="187.7" x2="219.1" y2="245.9" stroke="#e0a92e" stroke-width="0.9" opacity="0.6"/><line x1="160.9" y1="179.2" x2="219.1" y2="237.4" stroke="#e0a92e" stroke-width="0.9" opacity="0.6"/><line x1="160.9" y1="170.7" x2="219.1" y2="228.9" stroke="#e0a92e" stroke-width="0.9" opacity="0.6"/><line x1="160.9" y1="162.2" x2="219.1" y2="220.4" stroke="#e0a92e" stroke-width="0.9" opacity="0.6"/><line x1="160.9" y1="153.7" x2="219.1" y2="211.9" stroke="#e0a92e" stroke-width="0.9" opacity="0.6"/><line x1="160.9" y1="145.2" x2="219.1" y2="203.4" stroke="#e0a92e" stroke-width="0.9" opacity="0.6"/><line x1="160.9" y1="136.7" x2="219.1" y2="194.9" stroke="#e0a92e" stroke-width="0.9" opacity="0.6"/><line x1="160.9" y1="128.2" x2="219.1" y2="186.4" stroke="#e0a92e" stroke-width="0.9" opacity="0.6"/><line x1="160.9" y1="119.7" x2="219.1" y2="177.9" stroke="#e0a92e" stroke-width="0.9" opacity="0.6"/><line x1="160.9" y1="111.2" x2="219.1" y2="169.4" stroke="#e0a92e" stroke-width="0.9" opacity="0.6"/><line x1="162.2" y1="104.0" x2="219.1" y2="160.9" stroke="#e0a92e" stroke-width="0.9" opacity="0.6"/><line x1="170.7" y1="104.0" x2="219.1" y2="152.4" stroke="#e0a92e" stroke-width="0.9" opacity="0.6"/><line x1="179.2" y1="104.0" x2="219.1" y2="143.9" stroke="#e0a92e" stroke-width="0.9" opacity="0.6"/><line x1="187.7" y1="104.0" x2="219.1" y2="135.4" stroke="#e0a92e" stroke-width="0.9" opacity="0.6"/><line x1="196.2" y1="104.0" x2="219.1" y2="126.9" stroke="#e0a92e" stroke-width="0.9" opacity="0.6"/><line x1="204.7" y1="104.0" x2="219.1" y2="118.4" stroke="#e0a92e" stroke-width="0.9" opacity="0.6"/><line x1="213.2" y1="104.0" x2="219.1" y2="109.9" stroke="#e0a92e" stroke-width="0.9" opacity="0.6"/><polygon points="160.92307692307693,104 160.92307692307693,317.2307692307692 219.07692307692307,317.2307692307692 219.07692307692307,104" fill="none" stroke="#e0a92e" stroke-width="1.2" stroke-dasharray="3 2"/><circle cx="160.92307692307693" cy="142.76923076923077" r="11.63076923076923" fill="none" stroke="#2b3038" stroke-width="1.6"/><circle cx="160.92307692307693" cy="230" r="11.63076923076923" fill="none" stroke="#2b3038" stroke-width="1.6"/><circle cx="160.92307692307693" cy="317.2307692307692" r="11.63076923076923" fill="none" stroke="#2b3038" stroke-width="1.6"/><circle cx="219.07692307692307" cy="142.76923076923077" r="11.63076923076923" fill="none" stroke="#2b3038" stroke-width="1.6"/><circle cx="219.07692307692307" cy="230" r="11.63076923076923" fill="none" stroke="#2b3038" stroke-width="1.6"/><circle cx="219.07692307692307" cy="317.2307692307692" r="11.63076923076923" fill="none" stroke="#2b3038" stroke-width="1.6"/><line x1="160.92307692307693" y1="104" x2="160.92307692307693" y2="317.2307692307692" stroke="#d1495b" stroke-width="3" stroke-linecap="round"/><line x1="219.07692307692307" y1="104" x2="219.07692307692307" y2="317.2307692307692" stroke="#d1495b" stroke-width="3" stroke-linecap="round"/><polyline points="160.92307692307693,317.2307692307692 219.07692307692307,317.2307692307692" fill="none" stroke="#2c6fbb" stroke-width="3" stroke-dasharray="6 4" stroke-linecap="round" stroke-linejoin="round"/><circle cx="160.92307692307693" cy="199.95384615384614" r="8.5" fill="#fff" stroke="#d1495b" stroke-width="1.2"/><text x="160.92307692307693" y="203.95384615384614" font-size="11" font-weight="800" fill="#d1495b" text-anchor="middle">S</text><circle cx="190" cy="333.2307692307692" r="8.5" fill="#fff" stroke="#2c6fbb" stroke-width="1.2"/><text x="190" y="337.2307692307692" font-size="11" font-weight="800" fill="#2c6fbb" text-anchor="middle">T</text><line x1="34" y1="110" x2="34" y2="350" stroke="#12a794" stroke-width="5" stroke-linecap="round"/><path d="M34,350 l-9,-17 h18 z" fill="#12a794"/><text x="16" y="230" font-size="15" font-weight="800" fill="#12a794" text-anchor="start">Vu</text><g><line x1="16" y1="460" x2="38" y2="460" stroke="#d1495b" stroke-width="3" stroke-linecap="round"/><text x="44" y="464" font-size="10" font-weight="400" fill="#6b7280" text-anchor="start">전단 파단면(S)</text><line x1="154" y1="460" x2="176" y2="460" stroke="#2c6fbb" stroke-width="3" stroke-dasharray="6 4" stroke-linecap="round"/><text x="182" y="464" font-size="10" font-weight="400" fill="#6b7280" text-anchor="start">인장 파단면(T)</text><polygon points="16,472 36,472 36,483 16,483" fill="#f5b847" fill-opacity="0.20"/><polygon points="16,472 36,472 36,483 16,483" fill="none" stroke="#e0a92e" stroke-width="1.2" stroke-dasharray="3 2"/><text x="42" y="481" font-size="10" font-weight="400" fill="#6b7280" text-anchor="start">탈락(뜯김) 블록</text><text x="154" y="481" font-size="10" font-weight="700" fill="#e0a92e" text-anchor="start">φRn 3675kN · Ubs 1.0 · DCR 0.25</text></g><g><rect x="288" y="9" width="78" height="22" rx="4" fill="#e0a92e" opacity="0.14"/><text x="327" y="25" font-size="12" font-weight="800" fill="#e0a92e" text-anchor="middle">Path 1 ◀</text></g></svg>