<svg xmlns="http://www.w3.org/2000/svg" viewBox="0 0 540 348" font-family="'Segoe UI',system-ui,sans-serif"><text x="16" y="26" font-size="15" font-weight="800" fill="#2b3038" text-anchor="start">② 내부 이음판 (평면, WEB SECTION)</text><text x="16" y="44" font-size="11.5" font-weight="400" fill="#6b7280" text-anchor="start">H-450x200x9x14 · 내부판 ×2매 · PL-19×70</text><rect x="96" y="123.76923076923077" width="388" height="104.46153846153847" fill="#f1f3f7" stroke="#e0a92e" stroke-width="2"/><rect x="96" y="234.23076923076923" width="388" height="22" fill="#d7dbe2" stroke="#8b93a0" stroke-width="0.8" stroke-dasharray="5 3"/><text x="290" y="249.23076923076923" font-size="9.5" font-weight="700" fill="#8b93a0" text-anchor="middle">WEB SECTION (모재 웨브 위치)</text><line x1="96" y1="228.23076923076923" x2="484" y2="228.23076923076923" stroke="#8b93a0" stroke-width="1" stroke-dasharray="3 2"/><text x="490" y="231.23076923076923" font-size="8.5" font-weight="400" fill="#6b7280" text-anchor="start">내측 연단</text><line x1="96" y1="123.76923076923077" x2="96" y2="228.23076923076923" stroke="#2b3038" stroke-width="1.6"/><text x="98" y="116.76923076923077" font-size="9.5" font-weight="400" fill="#6b7280" text-anchor="start">이음 갭 ℄ (자유단)</text><line x1="96" y1="228.23076923076923" x2="91" y2="228.23076923076923" stroke="#8b93a0" stroke-width="0.8"/><line x1="96" y1="210.82051282051282" x2="91" y2="210.82051282051282" stroke="#8b93a0" stroke-width="0.8"/><line x1="96" y1="193.4102564102564" x2="91" y2="193.4102564102564" stroke="#8b93a0" stroke-width="0.8"/><line x1="96" y1="176" x2="91" y2="176" stroke="#8b93a0" stroke-width="0.8"/><line x1="96" y1="158.5897435897436" x2="91" y2="158.5897435897436" stroke="#8b93a0" stroke-width="0.8"/><line x1="96" y1="141.17948717948718" x2="91" y2="141.17948717948718" stroke="#8b93a0" stroke-width="0.8"/><line x1="96" y1="123.76923076923077" x2="91" y2="123.76923076923077" stroke="#8b93a0" stroke-width="0.8"/><polygon points="96,176 424.3076923076923,176 424.3076923076923,123.76923076923077 96,123.76923076923077" fill="#f5b847" fill-opacity="0.20"/><line x1="167.5" y1="123.8" x2="219.8" y2="176.0" stroke="#e0a92e" stroke-width="0.9" opacity="0.6"/><line x1="176.0" y1="123.8" x2="228.3" y2="176.0" stroke="#e0a92e" stroke-width="0.9" opacity="0.6"/><line x1="184.5" y1="123.8" x2="236.8" y2="176.0" stroke="#e0a92e" stroke-width="0.9" opacity="0.6"/><line x1="193.0" y1="123.8" x2="245.3" y2="176.0" stroke="#e0a92e" stroke-width="0.9" opacity="0.6"/><line x1="201.5" y1="123.8" x2="253.8" y2="176.0" stroke="#e0a92e" stroke-width="0.9" opacity="0.6"/><line x1="210.0" y1="123.8" x2="262.3" y2="176.0" stroke="#e0a92e" stroke-width="0.9" opacity="0.6"/><line x1="218.5" y1="123.8" x2="270.8" y2="176.0" stroke="#e0a92e" stroke-width="0.9" opacity="0.6"/><line x1="227.0" y1="123.8" x2="279.3" y2="176.0" stroke="#e0a92e" stroke-width="0.9" opacity="0.6"/><line x1="235.5" y1="123.8" x2="287.8" y2="176.0" stroke="#e0a92e" stroke-width="0.9" opacity="0.6"/><line x1="244.0" y1="123.8" x2="296.3" y2="176.0" stroke="#e0a92e" stroke-width="0.9" opacity="0.6"/><line x1="252.5" y1="123.8" x2="304.8" y2="176.0" stroke="#e0a92e" stroke-width="0.9" opacity="0.6"/><line x1="261.0" y1="123.8" x2="313.3" y2="176.0" stroke="#e0a92e" stroke-width="0.9" opacity="0.6"/><line x1="269.5" y1="123.8" x2="321.8" y2="176.0" stroke="#e0a92e" stroke-width="0.9" opacity="0.6"/><line x1="278.0" y1="123.8" x2="330.3" y2="176.0" stroke="#e0a92e" stroke-width="0.9" opacity="0.6"/><line x1="286.5" y1="123.8" x2="338.8" y2="176.0" stroke="#e0a92e" stroke-width="0.9" opacity="0.6"/><line x1="295.0" y1="123.8" x2="347.3" y2="176.0" stroke="#e0a92e" stroke-width="0.9" opacity="0.6"/><line x1="303.5" y1="123.8" x2="355.8" y2="176.0" stroke="#e0a92e" stroke-width="0.9" opacity="0.6"/><line x1="312.0" y1="123.8" x2="364.3" y2="176.0" stroke="#e0a92e" stroke-width="0.9" opacity="0.6"/><line x1="320.5" y1="123.8" x2="372.8" y2="176.0" stroke="#e0a92e" stroke-width="0.9" opacity="0.6"/><line x1="329.0" y1="123.8" x2="381.3" y2="176.0" stroke="#e0a92e" stroke-width="0.9" opacity="0.6"/><line x1="337.5" y1="123.8" x2="389.8" y2="176.0" stroke="#e0a92e" stroke-width="0.9" opacity="0.6"/><line x1="346.0" y1="123.8" x2="398.3" y2="176.0" stroke="#e0a92e" stroke-width="0.9" opacity="0.6"/><line x1="354.5" y1="123.8" x2="406.8" y2="176.0" stroke="#e0a92e" stroke-width="0.9" opacity="0.6"/><line x1="363.0" y1="123.8" x2="415.3" y2="176.0" stroke="#e0a92e" stroke-width="0.9" opacity="0.6"/><line x1="371.5" y1="123.8" x2="423.8" y2="176.0" stroke="#e0a92e" stroke-width="0.9" opacity="0.6"/><line x1="380.0" y1="123.8" x2="424.3" y2="168.0" stroke="#e0a92e" stroke-width="0.9" opacity="0.6"/><line x1="388.5" y1="123.8" x2="424.3" y2="159.5" stroke="#e0a92e" stroke-width="0.9" opacity="0.6"/><line x1="397.0" y1="123.8" x2="424.3" y2="151.0" stroke="#e0a92e" stroke-width="0.9" opacity="0.6"/><line x1="405.5" y1="123.8" x2="424.3" y2="142.5" stroke="#e0a92e" stroke-width="0.9" opacity="0.6"/><line x1="414.0" y1="123.8" x2="424.3" y2="134.0" stroke="#e0a92e" stroke-width="0.9" opacity="0.6"/><line x1="422.5" y1="123.8" x2="424.3" y2="125.5" stroke="#e0a92e" stroke-width="0.9" opacity="0.6"/><polygon points="96,176 424.3076923076923,176 424.3076923076923,123.76923076923077 96,123.76923076923077" fill="none" stroke="#e0a92e" stroke-width="1.2" stroke-dasharray="3 2"/><circle cx="155.69230769230768" cy="176" r="16.415384615384617" fill="none" stroke="#2b3038" stroke-width="1.6"/><circle cx="245.23076923076923" cy="176" r="16.415384615384617" fill="none" stroke="#2b3038" stroke-width="1.6"/><circle cx="334.7692307692308" cy="176" r="16.415384615384617" fill="none" stroke="#2b3038" stroke-width="1.6"/><circle cx="424.3076923076923" cy="176" r="16.415384615384617" fill="none" stroke="#2b3038" stroke-width="1.6"/><line x1="96" y1="176" x2="424.3076923076923" y2="176" stroke="#d1495b" stroke-width="3" stroke-linecap="round"/><polyline points="424.3076923076923,176 424.3076923076923,123.76923076923077" fill="none" stroke="#2c6fbb" stroke-width="3" stroke-dasharray="6 4" stroke-linecap="round" stroke-linejoin="round"/><circle cx="243.73846153846154" cy="176" r="8.5" fill="#fff" stroke="#d1495b" stroke-width="1.2"/><text x="243.73846153846154" y="180" font-size="11" font-weight="800" fill="#d1495b" text-anchor="middle">S</text><circle cx="438.3076923076923" cy="149.8846153846154" r="8.5" fill="#fff" stroke="#2c6fbb" stroke-width="1.2"/><text x="438.3076923076923" y="153.8846153846154" font-size="11" font-weight="800" fill="#2c6fbb" text-anchor="middle">T</text><line x1="90" y1="176" x2="30" y2="176" stroke="#12a794" stroke-width="5" stroke-linecap="round"/><path d="M30,176 l17,-9 v18 z" fill="#12a794"/><text x="34" y="164" font-size="15" font-weight="800" fill="#12a794" text-anchor="start">Pf</text><line x1="500" y1="123.76923076923077" x2="500" y2="228.23076923076923" stroke="#6b7280" stroke-width="0.8"/><line x1="496" y1="123.76923076923077" x2="504" y2="123.76923076923077" stroke="#6b7280" stroke-width="0.8"/><line x1="496" y1="228.23076923076923" x2="504" y2="228.23076923076923" stroke="#6b7280" stroke-width="0.8"/><text x="512" y="176" font-size="10.5" fill="#6b7280" text-anchor="middle" transform="rotate(90 512 176)">70</text><g><line x1="16" y1="308" x2="38" y2="308" stroke="#d1495b" stroke-width="3" stroke-linecap="round"/><text x="44" y="312" font-size="10" font-weight="400" fill="#6b7280" text-anchor="start">전단 파단면(S)</text><line x1="154" y1="308" x2="176" y2="308" stroke="#2c6fbb" stroke-width="3" stroke-dasharray="6 4" stroke-linecap="round"/><text x="182" y="312" font-size="10" font-weight="400" fill="#6b7280" text-anchor="start">인장 파단면(T)</text><polygon points="16,320 36,320 36,331 16,331" fill="#f5b847" fill-opacity="0.20"/><polygon points="16,320 36,320 36,331 16,331" fill="none" stroke="#e0a92e" stroke-width="1.2" stroke-dasharray="3 2"/><text x="42" y="329" font-size="10" font-weight="400" fill="#6b7280" text-anchor="start">탈락(뜯김) 블록</text><text x="154" y="329" font-size="10" font-weight="700" fill="#e0a92e" text-anchor="start">φRn 1366kN · Ubs 0.5 · DCR 0.45</text></g><g><rect x="448" y="9" width="78" height="22" rx="4" fill="#e0a92e" opacity="0.14"/><text x="487" y="25" font-size="12" font-weight="800" fill="#e0a92e" text-anchor="middle">Path 4 ◀</text></g></svg>