<svg xmlns="http://www.w3.org/2000/svg" viewBox="0 0 540 348" font-family="'Segoe UI',system-ui,sans-serif"><text x="16" y="26" font-size="15" font-weight="800" fill="#2b3038" text-anchor="start">① 외부 이음판 (평면)</text><text x="16" y="44" font-size="11.5" font-weight="400" fill="#6b7280" text-anchor="start">H-450x200x9x14 · 플랜지 1열배치 · M20 · PL-19×200</text><rect x="96" y="80" width="249.6" height="192" fill="#f1f3f7" stroke="#e0a92e" stroke-width="2"/><line x1="96" y1="176" x2="345.6" y2="176" stroke="#8b93a0" stroke-width="1" stroke-dasharray="10 4 3 4"/><text x="341.6" y="171" font-size="9.5" font-weight="400" fill="#8b93a0" text-anchor="end">web ℄</text><line x1="96" y1="80" x2="96" y2="272" stroke="#2b3038" stroke-width="1.6"/><text x="98" y="73" font-size="9.5" font-weight="400" fill="#6b7280" text-anchor="start">이음 갭 ℄ (자유단)</text><line x1="96" y1="272" x2="91" y2="272" stroke="#8b93a0" stroke-width="0.8"/><line x1="96" y1="240" x2="91" y2="240" stroke="#8b93a0" stroke-width="0.8"/><line x1="96" y1="208" x2="91" y2="208" stroke="#8b93a0" stroke-width="0.8"/><line x1="96" y1="176" x2="91" y2="176" stroke="#8b93a0" stroke-width="0.8"/><line x1="96" y1="144" x2="91" y2="144" stroke="#8b93a0" stroke-width="0.8"/><line x1="96" y1="111.99999999999999" x2="91" y2="111.99999999999999" stroke="#8b93a0" stroke-width="0.8"/><line x1="96" y1="80" x2="91" y2="80" stroke="#8b93a0" stroke-width="0.8"/><polygon points="96,118.4 307.2,118.4 307.2,80 96,80" fill="#f5b847" fill-opacity="0.20"/><line x1="137.6" y1="80.0" x2="176.0" y2="118.4" stroke="#e0a92e" stroke-width="0.9" opacity="0.6"/><line x1="146.1" y1="80.0" x2="184.5" y2="118.4" stroke="#e0a92e" stroke-width="0.9" opacity="0.6"/><line x1="154.6" y1="80.0" x2="193.0" y2="118.4" stroke="#e0a92e" stroke-width="0.9" opacity="0.6"/><line x1="163.1" y1="80.0" x2="201.5" y2="118.4" stroke="#e0a92e" stroke-width="0.9" opacity="0.6"/><line x1="171.6" y1="80.0" x2="210.0" y2="118.4" stroke="#e0a92e" stroke-width="0.9" opacity="0.6"/><line x1="180.1" y1="80.0" x2="218.5" y2="118.4" stroke="#e0a92e" stroke-width="0.9" opacity="0.6"/><line x1="188.6" y1="80.0" x2="227.0" y2="118.4" stroke="#e0a92e" stroke-width="0.9" opacity="0.6"/><line x1="197.1" y1="80.0" x2="235.5" y2="118.4" stroke="#e0a92e" stroke-width="0.9" opacity="0.6"/><line x1="205.6" y1="80.0" x2="244.0" y2="118.4" stroke="#e0a92e" stroke-width="0.9" opacity="0.6"/><line x1="214.1" y1="80.0" x2="252.5" y2="118.4" stroke="#e0a92e" stroke-width="0.9" opacity="0.6"/><line x1="222.6" y1="80.0" x2="261.0" y2="118.4" stroke="#e0a92e" stroke-width="0.9" opacity="0.6"/><line x1="231.1" y1="80.0" x2="269.5" y2="118.4" stroke="#e0a92e" stroke-width="0.9" opacity="0.6"/><line x1="239.6" y1="80.0" x2="278.0" y2="118.4" stroke="#e0a92e" stroke-width="0.9" opacity="0.6"/><line x1="248.1" y1="80.0" x2="286.5" y2="118.4" stroke="#e0a92e" stroke-width="0.9" opacity="0.6"/><line x1="256.6" y1="80.0" x2="295.0" y2="118.4" stroke="#e0a92e" stroke-width="0.9" opacity="0.6"/><line x1="265.1" y1="80.0" x2="303.5" y2="118.4" stroke="#e0a92e" stroke-width="0.9" opacity="0.6"/><line x1="273.6" y1="80.0" x2="307.2" y2="113.6" stroke="#e0a92e" stroke-width="0.9" opacity="0.6"/><line x1="282.1" y1="80.0" x2="307.2" y2="105.1" stroke="#e0a92e" stroke-width="0.9" opacity="0.6"/><line x1="290.6" y1="80.0" x2="307.2" y2="96.6" stroke="#e0a92e" stroke-width="0.9" opacity="0.6"/><line x1="299.1" y1="80.0" x2="307.2" y2="88.1" stroke="#e0a92e" stroke-width="0.9" opacity="0.6"/><polygon points="96,118.4 307.2,118.4 307.2,80 96,80" fill="none" stroke="#e0a92e" stroke-width="1.2" stroke-dasharray="3 2"/><circle cx="134.4" cy="233.6" r="10.559999999999999" fill="none" stroke="#8b93a0" stroke-width="1"/><circle cx="192" cy="233.6" r="10.559999999999999" fill="none" stroke="#8b93a0" stroke-width="1"/><circle cx="249.6" cy="233.6" r="10.559999999999999" fill="none" stroke="#8b93a0" stroke-width="1"/><circle cx="307.2" cy="233.6" r="10.559999999999999" fill="none" stroke="#8b93a0" stroke-width="1"/><circle cx="134.4" cy="118.4" r="10.559999999999999" fill="none" stroke="#2b3038" stroke-width="1.6"/><circle cx="192" cy="118.4" r="10.559999999999999" fill="none" stroke="#2b3038" stroke-width="1.6"/><circle cx="249.6" cy="118.4" r="10.559999999999999" fill="none" stroke="#2b3038" stroke-width="1.6"/><circle cx="307.2" cy="118.4" r="10.559999999999999" fill="none" stroke="#2b3038" stroke-width="1.6"/><line x1="96" y1="118.4" x2="307.2" y2="118.4" stroke="#d1495b" stroke-width="3" stroke-linecap="round"/><polyline points="307.2,118.4 307.2,80" fill="none" stroke="#2c6fbb" stroke-width="3" stroke-dasharray="6 4" stroke-linecap="round" stroke-linejoin="round"/><circle cx="191.04" cy="118.4" r="8.5" fill="#fff" stroke="#d1495b" stroke-width="1.2"/><text x="191.04" y="122.4" font-size="11" font-weight="800" fill="#d1495b" text-anchor="middle">S</text><circle cx="321.2" cy="99.2" r="8.5" fill="#fff" stroke="#2c6fbb" stroke-width="1.2"/><text x="321.2" y="103.2" font-size="11" font-weight="800" fill="#2c6fbb" text-anchor="middle">T</text><line x1="90" y1="176" x2="30" y2="176" stroke="#12a794" stroke-width="5" stroke-linecap="round"/><path d="M30,176 l17,-9 v18 z" fill="#12a794"/><text x="34" y="164" font-size="15" font-weight="800" fill="#12a794" text-anchor="start">Pf</text><line x1="361.6" y1="80" x2="361.6" y2="272" stroke="#6b7280" stroke-width="0.8"/><line x1="357.6" y1="80" x2="365.6" y2="80" stroke="#6b7280" stroke-width="0.8"/><line x1="357.6" y1="272" x2="365.6" y2="272" stroke="#6b7280" stroke-width="0.8"/><text x="373.6" y="176" font-size="10.5" fill="#6b7280" text-anchor="middle" transform="rotate(90 373.6 176)">200</text><g><line x1="16" y1="308" x2="38" y2="308" stroke="#d1495b" stroke-width="3" stroke-linecap="round"/><text x="44" y="312" font-size="10" font-weight="400" fill="#6b7280" text-anchor="start">전단 파단면(S)</text><line x1="154" y1="308" x2="176" y2="308" stroke="#2c6fbb" stroke-width="3" stroke-dasharray="6 4" stroke-linecap="round"/><text x="182" y="312" font-size="10" font-weight="400" fill="#6b7280" text-anchor="start">인장 파단면(T)</text><polygon points="16,320 36,320 36,331 16,331" fill="#f5b847" fill-opacity="0.20"/><polygon points="16,320 36,320 36,331 16,331" fill="none" stroke="#e0a92e" stroke-width="1.2" stroke-dasharray="3 2"/><text x="42" y="329" font-size="10" font-weight="400" fill="#6b7280" text-anchor="start">탈락(뜯김) 블록</text><text x="154" y="329" font-size="10" font-weight="700" fill="#e0a92e" text-anchor="start">φRn 700kN · Ubs 0.5 · DCR 0.44</text></g><g><rect x="448" y="9" width="78" height="22" rx="4" fill="#e0a92e" opacity="0.14"/><text x="487" y="25" font-size="12" font-weight="800" fill="#e0a92e" text-anchor="middle">Path 1 ◀</text></g></svg>