0
SECTION
2
HEADER
9
$INSUNITS
70
4
0
ENDSEC
0
SECTION
2
TABLES
0
TABLE
2
LTYPE
70
2
0
LTYPE
2
CONTINUOUS
70
0
3
Solid
72
65
73
0
40
0
0
LTYPE
2
CENTER
70
0
3
Center
72
65
73
4
40
50
49
30
49
-6
49
8
49
-6
0
LTYPE
2
HIDDEN
70
0
3
Hidden
72
65
73
2
40
9
49
6
49
-3
0
ENDTAB
0
TABLE
2
LAYER
70
10
0
LAYER
2
MAIN
70
0
62
7
6
CONTINUOUS
0
LAYER
2
FLG_PL
70
0
62
5
6
CONTINUOUS
0
LAYER
2
WEB_PL
70
0
62
4
6
CONTINUOUS
0
LAYER
2
BOLT
70
0
62
1
6
CONTINUOUS
0
LAYER
2
VER_BOLT
70
0
62
1
6
CONTINUOUS
0
LAYER
2
CEN
70
0
62
6
6
CENTER
0
LAYER
2
HIDDEN
70
0
62
8
6
HIDDEN
0
LAYER
2
HATCH
70
0
62
8
6
CONTINUOUS
0
LAYER
2
DIM
70
0
62
3
6
CONTINUOUS
0
LAYER
2
TEXT
70
0
62
7
6
CONTINUOUS
0
ENDTAB
0
ENDSEC
0
SECTION
2
ENTITIES
0
LINE
8
HATCH
10
133.00
20
-100.00
30
0
11
145.00
21
-88.00
31
0
0
LINE
8
HATCH
10
121.00
20
-100.00
30
0
11
145.00
21
-76.00
31
0
0
LINE
8
HATCH
10
109.00
20
-100.00
30
0
11
145.00
21
-64.00
31
0
0
LINE
8
HATCH
10
97.00
20
-100.00
30
0
11
145.00
21
-52.00
31
0
0
LINE
8
HATCH
10
85.00
20
-100.00
30
0
11
145.00
21
-40.00
31
0
0
LINE
8
HATCH
10
73.00
20
-100.00
30
0
11
145.00
21
-28.00
31
0
0
LINE
8
HATCH
10
61.00
20
-100.00
30
0
11
145.00
21
-16.00
31
0
0
LINE
8
HATCH
10
49.00
20
-100.00
30
0
11
145.00
21
-4.00
31
0
0
LINE
8
HATCH
10
37.00
20
-100.00
30
0
11
145.00
21
8.00
31
0
0
LINE
8
HATCH
10
25.00
20
-100.00
30
0
11
145.00
21
20.00
31
0
0
LINE
8
HATCH
10
13.00
20
-100.00
30
0
11
145.00
21
32.00
31
0
0
LINE
8
HATCH
10
1.00
20
-100.00
30
0
11
145.00
21
44.00
31
0
0
LINE
8
HATCH
10
-11.00
20
-100.00
30
0
11
145.00
21
56.00
31
0
0
LINE
8
HATCH
10
-23.00
20
-100.00
30
0
11
145.00
21
68.00
31
0
0
LINE
8
HATCH
10
-35.00
20
-100.00
30
0
11
145.00
21
80.00
31
0
0
LINE
8
HATCH
10
-47.00
20
-100.00
30
0
11
145.00
21
92.00
31
0
0
LINE
8
HATCH
10
-59.00
20
-100.00
30
0
11
141.00
21
100.00
31
0
0
LINE
8
HATCH
10
-71.00
20
-100.00
30
0
11
129.00
21
100.00
31
0
0
LINE
8
HATCH
10
-83.00
20
-100.00
30
0
11
117.00
21
100.00
31
0
0
LINE
8
HATCH
10
-95.00
20
-100.00
30
0
11
105.00
21
100.00
31
0
0
LINE
8
HATCH
10
-107.00
20
-100.00
30
0
11
93.00
21
100.00
31
0
0
LINE
8
HATCH
10
-119.00
20
-100.00
30
0
11
81.00
21
100.00
31
0
0
LINE
8
HATCH
10
-131.00
20
-100.00
30
0
11
69.00
21
100.00
31
0
0
LINE
8
HATCH
10
-143.00
20
-100.00
30
0
11
57.00
21
100.00
31
0
0
LINE
8
HATCH
10
-145.00
20
-90.00
30
0
11
45.00
21
100.00
31
0
0
LINE
8
HATCH
10
-145.00
20
-78.00
30
0
11
33.00
21
100.00
31
0
0
LINE
8
HATCH
10
-145.00
20
-66.00
30
0
11
21.00
21
100.00
31
0
0
LINE
8
HATCH
10
-145.00
20
-54.00
30
0
11
9.00
21
100.00
31
0
0
LINE
8
HATCH
10
-145.00
20
-42.00
30
0
11
-3.00
21
100.00
31
0
0
LINE
8
HATCH
10
-145.00
20
-30.00
30
0
11
-15.00
21
100.00
31
0
0
LINE
8
HATCH
10
-145.00
20
-18.00
30
0
11
-27.00
21
100.00
31
0
0
LINE
8
HATCH
10
-145.00
20
-6.00
30
0
11
-39.00
21
100.00
31
0
0
LINE
8
HATCH
10
-145.00
20
6.00
30
0
11
-51.00
21
100.00
31
0
0
LINE
8
HATCH
10
-145.00
20
18.00
30
0
11
-63.00
21
100.00
31
0
0
LINE
8
HATCH
10
-145.00
20
30.00
30
0
11
-75.00
21
100.00
31
0
0
LINE
8
HATCH
10
-145.00
20
42.00
30
0
11
-87.00
21
100.00
31
0
0
LINE
8
HATCH
10
-145.00
20
54.00
30
0
11
-99.00
21
100.00
31
0
0
LINE
8
HATCH
10
-145.00
20
66.00
30
0
11
-111.00
21
100.00
31
0
0
LINE
8
HATCH
10
-145.00
20
78.00
30
0
11
-123.00
21
100.00
31
0
0
LINE
8
HATCH
10
-145.00
20
90.00
30
0
11
-135.00
21
100.00
31
0
0
LINE
8
FLG_PL
10
-145.00
20
-100.00
30
0
11
145.00
21
-100.00
31
0
0
LINE
8
FLG_PL
10
145.00
20
-100.00
30
0
11
145.00
21
100.00
31
0
0
LINE
8
FLG_PL
10
145.00
20
100.00
30
0
11
-145.00
21
100.00
31
0
0
LINE
8
FLG_PL
10
-145.00
20
100.00
30
0
11
-145.00
21
-100.00
31
0
0
LINE
8
CEN
10
0.00
20
-114.00
30
0
11
0.00
21
114.00
31
0
0
LINE
8
HIDDEN
10
-145.00
20
-4.00
30
0
11
145.00
21
-4.00
31
0
0
LINE
8
HIDDEN
10
-145.00
20
4.00
30
0
11
145.00
21
4.00
31
0
0
CIRCLE
8
BOLT
10
45.00
20
-50.00
30
0
40
11.00
0
LINE
8
CEN
10
29.00
20
-50.00
30
0
11
61.00
21
-50.00
31
0
0
LINE
8
CEN
10
45.00
20
-66.00
30
0
11
45.00
21
-34.00
31
0
0
CIRCLE
8
BOLT
10
45.00
20
50.00
30
0
40
11.00
0
LINE
8
CEN
10
29.00
20
50.00
30
0
11
61.00
21
50.00
31
0
0
LINE
8
CEN
10
45.00
20
34.00
30
0
11
45.00
21
66.00
31
0
0
CIRCLE
8
BOLT
10
105.00
20
-50.00
30
0
40
11.00
0
LINE
8
CEN
10
89.00
20
-50.00
30
0
11
121.00
21
-50.00
31
0
0
LINE
8
CEN
10
105.00
20
-66.00
30
0
11
105.00
21
-34.00
31
0
0
CIRCLE
8
BOLT
10
105.00
20
50.00
30
0
40
11.00
0
LINE
8
CEN
10
89.00
20
50.00
30
0
11
121.00
21
50.00
31
0
0
LINE
8
CEN
10
105.00
20
34.00
30
0
11
105.00
21
66.00
31
0
0
CIRCLE
8
BOLT
10
-45.00
20
-50.00
30
0
40
11.00
0
LINE
8
CEN
10
-61.00
20
-50.00
30
0
11
-29.00
21
-50.00
31
0
0
LINE
8
CEN
10
-45.00
20
-66.00
30
0
11
-45.00
21
-34.00
31
0
0
CIRCLE
8
BOLT
10
-45.00
20
50.00
30
0
40
11.00
0
LINE
8
CEN
10
-61.00
20
50.00
30
0
11
-29.00
21
50.00
31
0
0
LINE
8
CEN
10
-45.00
20
34.00
30
0
11
-45.00
21
66.00
31
0
0
CIRCLE
8
BOLT
10
-105.00
20
-50.00
30
0
40
11.00
0
LINE
8
CEN
10
-121.00
20
-50.00
30
0
11
-89.00
21
-50.00
31
0
0
LINE
8
CEN
10
-105.00
20
-66.00
30
0
11
-105.00
21
-34.00
31
0
0
CIRCLE
8
BOLT
10
-105.00
20
50.00
30
0
40
11.00
0
LINE
8
CEN
10
-121.00
20
50.00
30
0
11
-89.00
21
50.00
31
0
0
LINE
8
CEN
10
-105.00
20
34.00
30
0
11
-105.00
21
66.00
31
0
0
LINE
8
DIM
10
5.00
20
-146.00
30
0
11
145.00
21
-146.00
31
0
0
LINE
8
DIM
10
1.00
20
-150.00
30
0
11
9.00
21
-142.00
31
0
0
LINE
8
DIM
10
41.00
20
-150.00
30
0
11
49.00
21
-142.00
31
0
0
LINE
8
DIM
10
101.00
20
-150.00
30
0
11
109.00
21
-142.00
31
0
0
LINE
8
DIM
10
141.00
20
-150.00
30
0
11
149.00
21
-142.00
31
0
0
TEXT
8
DIM
10
25.00
20
-176.00
30
0
40
22.00
1
40
72
1
11
25.00
21
-176.00
31
0
0
TEXT
8
DIM
10
75.00
20
-176.00
30
0
40
22.00
1
60
72
1
11
75.00
21
-176.00
31
0
0
TEXT
8
DIM
10
125.00
20
-176.00
30
0
40
22.00
1
40
72
1
11
125.00
21
-176.00
31
0
0
LINE
8
DIM
10
-145.00
20
-146.00
30
0
11
-5.00
21
-146.00
31
0
0
LINE
8
DIM
10
-149.00
20
-150.00
30
0
11
-141.00
21
-142.00
31
0
0
LINE
8
DIM
10
-109.00
20
-150.00
30
0
11
-101.00
21
-142.00
31
0
0
LINE
8
DIM
10
-49.00
20
-150.00
30
0
11
-41.00
21
-142.00
31
0
0
LINE
8
DIM
10
-9.00
20
-150.00
30
0
11
-1.00
21
-142.00
31
0
0
TEXT
8
DIM
10
-125.00
20
-176.00
30
0
40
22.00
1
40
72
1
11
-125.00
21
-176.00
31
0
0
TEXT
8
DIM
10
-75.00
20
-176.00
30
0
40
22.00
1
60
72
1
11
-75.00
21
-176.00
31
0
0
TEXT
8
DIM
10
-25.00
20
-176.00
30
0
40
22.00
1
40
72
1
11
-25.00
21
-176.00
31
0
0
LINE
8
DIM
10
-5.00
20
-192.00
30
0
11
5.00
21
-192.00
31
0
0
LINE
8
DIM
10
-9.00
20
-196.00
30
0
11
-1.00
21
-188.00
31
0
0
LINE
8
DIM
10
1.00
20
-196.00
30
0
11
9.00
21
-188.00
31
0
0
TEXT
8
DIM
10
0.00
20
-222.00
30
0
40
22.00
1
10
72
1
11
0.00
21
-222.00
31
0
0
LINE
8
DIM
10
189.00
20
100.00
30
0
11
189.00
21
-100.00
31
0
0
LINE
8
DIM
10
185.00
20
96.00
30
0
11
193.00
21
104.00
31
0
0
LINE
8
DIM
10
185.00
20
46.00
30
0
11
193.00
21
54.00
31
0
0
LINE
8
DIM
10
185.00
20
-54.00
30
0
11
193.00
21
-46.00
31
0
0
LINE
8
DIM
10
185.00
20
-104.00
30
0
11
193.00
21
-96.00
31
0
0
LINE
8
DIM
10
185.00
20
96.00
30
0
11
193.00
21
104.00
31
0
0
LINE
8
DIM
10
185.00
20
46.00
30
0
11
193.00
21
54.00
31
0
0
LINE
8
DIM
10
185.00
20
-54.00
30
0
11
193.00
21
-46.00
31
0
0
LINE
8
DIM
10
185.00
20
-104.00
30
0
11
193.00
21
-96.00
31
0
0
TEXT
8
DIM
10
207.00
20
64.00
30
0
40
22.00
1
50
0
TEXT
8
DIM
10
207.00
20
-11.00
30
0
40
22.00
1
100
0
TEXT
8
DIM
10
207.00
20
-86.00
30
0
40
22.00
1
50
0
TEXT
8
TEXT
10
-145.00
20
-235.00
30
0
40
26.00
1
8-M20 H.T.B
0
TEXT
8
TEXT
10
-145.00
20
130.00
30
0
40
26.00
1
G.PL. 9x200x290 x2EA
0
LINE
8
MAIN
10
-170.00
20
740.00
30
0
11
170.00
21
740.00
31
0
0
LINE
8
MAIN
10
-170.00
20
727.00
30
0
11
170.00
21
727.00
31
0
0
LINE
8
MAIN
10
-170.00
20
340.00
30
0
11
170.00
21
340.00
31
0
0
LINE
8
MAIN
10
-170.00
20
353.00
30
0
11
170.00
21
353.00
31
0
0
LINE
8
HATCH
10
137.00
20
740.00
30
0
11
145.00
21
748.00
31
0
0
LINE
8
HATCH
10
129.00
20
740.00
30
0
11
138.00
21
749.00
31
0
0
LINE
8
HATCH
10
121.00
20
740.00
30
0
11
130.00
21
749.00
31
0
0
LINE
8
HATCH
10
113.00
20
740.00
30
0
11
122.00
21
749.00
31
0
0
LINE
8
HATCH
10
105.00
20
740.00
30
0
11
114.00
21
749.00
31
0
0
LINE
8
HATCH
10
97.00
20
740.00
30
0
11
106.00
21
749.00
31
0
0
LINE
8
HATCH
10
89.00
20
740.00
30
0
11
98.00
21
749.00
31
0
0
LINE
8
HATCH
10
81.00
20
740.00
30
0
11
90.00
21
749.00
31
0
0
LINE
8
HATCH
10
73.00
20
740.00
30
0
11
82.00
21
749.00
31
0
0
LINE
8
HATCH
10
65.00
20
740.00
30
0
11
74.00
21
749.00
31
0
0
LINE
8
HATCH
10
57.00
20
740.00
30
0
11
66.00
21
749.00
31
0
0
LINE
8
HATCH
10
49.00
20
740.00
30
0
11
58.00
21
749.00
31
0
0
LINE
8
HATCH
10
41.00
20
740.00
30
0
11
50.00
21
749.00
31
0
0
LINE
8
HATCH
10
33.00
20
740.00
30
0
11
42.00
21
749.00
31
0
0
LINE
8
HATCH
10
25.00
20
740.00
30
0
11
34.00
21
749.00
31
0
0
LINE
8
HATCH
10
17.00
20
740.00
30
0
11
26.00
21
749.00
31
0
0
LINE
8
HATCH
10
9.00
20
740.00
30
0
11
18.00
21
749.00
31
0
0
LINE
8
HATCH
10
1.00
20
740.00
30
0
11
10.00
21
749.00
31
0
0
LINE
8
HATCH
10
-7.00
20
740.00
30
0
11
2.00
21
749.00
31
0
0
LINE
8
HATCH
10
-15.00
20
740.00
30
0
11
-6.00
21
749.00
31
0
0
LINE
8
HATCH
10
-23.00
20
740.00
30
0
11
-14.00
21
749.00
31
0
0
LINE
8
HATCH
10
-31.00
20
740.00
30
0
11
-22.00
21
749.00
31
0
0
LINE
8
HATCH
10
-39.00
20
740.00
30
0
11
-30.00
21
749.00
31
0
0
LINE
8
HATCH
10
-47.00
20
740.00
30
0
11
-38.00
21
749.00
31
0
0
LINE
8
HATCH
10
-55.00
20
740.00
30
0
11
-46.00
21
749.00
31
0
0
LINE
8
HATCH
10
-63.00
20
740.00
30
0
11
-54.00
21
749.00
31
0
0
LINE
8
HATCH
10
-71.00
20
740.00
30
0
11
-62.00
21
749.00
31
0
0
LINE
8
HATCH
10
-79.00
20
740.00
30
0
11
-70.00
21
749.00
31
0
0
LINE
8
HATCH
10
-87.00
20
740.00
30
0
11
-78.00
21
749.00
31
0
0
LINE
8
HATCH
10
-95.00
20
740.00
30
0
11
-86.00
21
749.00
31
0
0
LINE
8
HATCH
10
-103.00
20
740.00
30
0
11
-94.00
21
749.00
31
0
0
LINE
8
HATCH
10
-111.00
20
740.00
30
0
11
-102.00
21
749.00
31
0
0
LINE
8
HATCH
10
-119.00
20
740.00
30
0
11
-110.00
21
749.00
31
0
0
LINE
8
HATCH
10
-127.00
20
740.00
30
0
11
-118.00
21
749.00
31
0
0
LINE
8
HATCH
10
-135.00
20
740.00
30
0
11
-126.00
21
749.00
31
0
0
LINE
8
HATCH
10
-143.00
20
740.00
30
0
11
-134.00
21
749.00
31
0
0
LINE
8
HATCH
10
-145.00
20
746.00
30
0
11
-142.00
21
749.00
31
0
0
LINE
8
FLG_PL
10
-145.00
20
740.00
30
0
11
145.00
21
740.00
31
0
0
LINE
8
FLG_PL
10
145.00
20
740.00
30
0
11
145.00
21
749.00
31
0
0
LINE
8
FLG_PL
10
145.00
20
749.00
30
0
11
-145.00
21
749.00
31
0
0
LINE
8
FLG_PL
10
-145.00
20
749.00
30
0
11
-145.00
21
740.00
31
0
0
LINE
8
HATCH
10
137.00
20
331.00
30
0
11
145.00
21
339.00
31
0
0
LINE
8
HATCH
10
129.00
20
331.00
30
0
11
138.00
21
340.00
31
0
0
LINE
8
HATCH
10
121.00
20
331.00
30
0
11
130.00
21
340.00
31
0
0
LINE
8
HATCH
10
113.00
20
331.00
30
0
11
122.00
21
340.00
31
0
0
LINE
8
HATCH
10
105.00
20
331.00
30
0
11
114.00
21
340.00
31
0
0
LINE
8
HATCH
10
97.00
20
331.00
30
0
11
106.00
21
340.00
31
0
0
LINE
8
HATCH
10
89.00
20
331.00
30
0
11
98.00
21
340.00
31
0
0
LINE
8
HATCH
10
81.00
20
331.00
30
0
11
90.00
21
340.00
31
0
0
LINE
8
HATCH
10
73.00
20
331.00
30
0
11
82.00
21
340.00
31
0
0
LINE
8
HATCH
10
65.00
20
331.00
30
0
11
74.00
21
340.00
31
0
0
LINE
8
HATCH
10
57.00
20
331.00
30
0
11
66.00
21
340.00
31
0
0
LINE
8
HATCH
10
49.00
20
331.00
30
0
11
58.00
21
340.00
31
0
0
LINE
8
HATCH
10
41.00
20
331.00
30
0
11
50.00
21
340.00
31
0
0
LINE
8
HATCH
10
33.00
20
331.00
30
0
11
42.00
21
340.00
31
0
0
LINE
8
HATCH
10
25.00
20
331.00
30
0
11
34.00
21
340.00
31
0
0
LINE
8
HATCH
10
17.00
20
331.00
30
0
11
26.00
21
340.00
31
0
0
LINE
8
HATCH
10
9.00
20
331.00
30
0
11
18.00
21
340.00
31
0
0
LINE
8
HATCH
10
1.00
20
331.00
30
0
11
10.00
21
340.00
31
0
0
LINE
8
HATCH
10
-7.00
20
331.00
30
0
11
2.00
21
340.00
31
0
0
LINE
8
HATCH
10
-15.00
20
331.00
30
0
11
-6.00
21
340.00
31
0
0
LINE
8
HATCH
10
-23.00
20
331.00
30
0
11
-14.00
21
340.00
31
0
0
LINE
8
HATCH
10
-31.00
20
331.00
30
0
11
-22.00
21
340.00
31
0
0
LINE
8
HATCH
10
-39.00
20
331.00
30
0
11
-30.00
21
340.00
31
0
0
LINE
8
HATCH
10
-47.00
20
331.00
30
0
11
-38.00
21
340.00
31
0
0
LINE
8
HATCH
10
-55.00
20
331.00
30
0
11
-46.00
21
340.00
31
0
0
LINE
8
HATCH
10
-63.00
20
331.00
30
0
11
-54.00
21
340.00
31
0
0
LINE
8
HATCH
10
-71.00
20
331.00
30
0
11
-62.00
21
340.00
31
0
0
LINE
8
HATCH
10
-79.00
20
331.00
30
0
11
-70.00
21
340.00
31
0
0
LINE
8
HATCH
10
-87.00
20
331.00
30
0
11
-78.00
21
340.00
31
0
0
LINE
8
HATCH
10
-95.00
20
331.00
30
0
11
-86.00
21
340.00
31
0
0
LINE
8
HATCH
10
-103.00
20
331.00
30
0
11
-94.00
21
340.00
31
0
0
LINE
8
HATCH
10
-111.00
20
331.00
30
0
11
-102.00
21
340.00
31
0
0
LINE
8
HATCH
10
-119.00
20
331.00
30
0
11
-110.00
21
340.00
31
0
0
LINE
8
HATCH
10
-127.00
20
331.00
30
0
11
-118.00
21
340.00
31
0
0
LINE
8
HATCH
10
-135.00
20
331.00
30
0
11
-126.00
21
340.00
31
0
0
LINE
8
HATCH
10
-143.00
20
331.00
30
0
11
-134.00
21
340.00
31
0
0
LINE
8
HATCH
10
-145.00
20
337.00
30
0
11
-142.00
21
340.00
31
0
0
LINE
8
FLG_PL
10
-145.00
20
331.00
30
0
11
145.00
21
331.00
31
0
0
LINE
8
FLG_PL
10
145.00
20
331.00
30
0
11
145.00
21
340.00
31
0
0
LINE
8
FLG_PL
10
145.00
20
340.00
30
0
11
-145.00
21
340.00
31
0
0
LINE
8
FLG_PL
10
-145.00
20
340.00
30
0
11
-145.00
21
331.00
31
0
0
LINE
8
HATCH
10
118.00
20
465.00
30
0
11
130.00
21
477.00
31
0
0
LINE
8
HATCH
10
106.00
20
465.00
30
0
11
130.00
21
489.00
31
0
0
LINE
8
HATCH
10
94.00
20
465.00
30
0
11
130.00
21
501.00
31
0
0
LINE
8
HATCH
10
82.00
20
465.00
30
0
11
130.00
21
513.00
31
0
0
LINE
8
HATCH
10
70.00
20
465.00
30
0
11
130.00
21
525.00
31
0
0
LINE
8
HATCH
10
58.00
20
465.00
30
0
11
130.00
21
537.00
31
0
0
LINE
8
HATCH
10
46.00
20
465.00
30
0
11
130.00
21
549.00
31
0
0
LINE
8
HATCH
10
34.00
20
465.00
30
0
11
130.00
21
561.00
31
0
0
LINE
8
HATCH
10
22.00
20
465.00
30
0
11
130.00
21
573.00
31
0
0
LINE
8
HATCH
10
10.00
20
465.00
30
0
11
130.00
21
585.00
31
0
0
LINE
8
HATCH
10
-2.00
20
465.00
30
0
11
130.00
21
597.00
31
0
0
LINE
8
HATCH
10
-14.00
20
465.00
30
0
11
130.00
21
609.00
31
0
0
LINE
8
HATCH
10
-26.00
20
465.00
30
0
11
124.00
21
615.00
31
0
0
LINE
8
HATCH
10
-38.00
20
465.00
30
0
11
112.00
21
615.00
31
0
0
LINE
8
HATCH
10
-50.00
20
465.00
30
0
11
100.00
21
615.00
31
0
0
LINE
8
HATCH
10
-62.00
20
465.00
30
0
11
88.00
21
615.00
31
0
0
LINE
8
HATCH
10
-74.00
20
465.00
30
0
11
76.00
21
615.00
31
0
0
LINE
8
HATCH
10
-86.00
20
465.00
30
0
11
64.00
21
615.00
31
0
0
LINE
8
HATCH
10
-98.00
20
465.00
30
0
11
52.00
21
615.00
31
0
0
LINE
8
HATCH
10
-110.00
20
465.00
30
0
11
40.00
21
615.00
31
0
0
LINE
8
HATCH
10
-122.00
20
465.00
30
0
11
28.00
21
615.00
31
0
0
LINE
8
HATCH
10
-130.00
20
469.00
30
0
11
16.00
21
615.00
31
0
0
LINE
8
HATCH
10
-130.00
20
481.00
30
0
11
4.00
21
615.00
31
0
0
LINE
8
HATCH
10
-130.00
20
493.00
30
0
11
-8.00
21
615.00
31
0
0
LINE
8
HATCH
10
-130.00
20
505.00
30
0
11
-20.00
21
615.00
31
0
0
LINE
8
HATCH
10
-130.00
20
517.00
30
0
11
-32.00
21
615.00
31
0
0
LINE
8
HATCH
10
-130.00
20
529.00
30
0
11
-44.00
21
615.00
31
0
0
LINE
8
HATCH
10
-130.00
20
541.00
30
0
11
-56.00
21
615.00
31
0
0
LINE
8
HATCH
10
-130.00
20
553.00
30
0
11
-68.00
21
615.00
31
0
0
LINE
8
HATCH
10
-130.00
20
565.00
30
0
11
-80.00
21
615.00
31
0
0
LINE
8
HATCH
10
-130.00
20
577.00
30
0
11
-92.00
21
615.00
31
0
0
LINE
8
HATCH
10
-130.00
20
589.00
30
0
11
-104.00
21
615.00
31
0
0
LINE
8
HATCH
10
-130.00
20
601.00
30
0
11
-116.00
21
615.00
31
0
0
LINE
8
HATCH
10
-130.00
20
613.00
30
0
11
-128.00
21
615.00
31
0
0
LINE
8
WEB_PL
10
-130.00
20
465.00
30
0
11
130.00
21
465.00
31
0
0
LINE
8
WEB_PL
10
130.00
20
465.00
30
0
11
130.00
21
615.00
31
0
0
LINE
8
WEB_PL
10
130.00
20
615.00
30
0
11
-130.00
21
615.00
31
0
0
LINE
8
WEB_PL
10
-130.00
20
615.00
30
0
11
-130.00
21
465.00
31
0
0
LINE
8
CEN
10
0.00
20
322.00
30
0
11
0.00
21
758.00
31
0
0
LINE
8
VER_BOLT
10
45.00
20
749.00
30
0
11
45.00
21
727.00
31
0
0
LINE
8
VER_BOLT
10
45.00
20
331.00
30
0
11
45.00
21
353.00
31
0
0
LINE
8
VER_BOLT
10
105.00
20
749.00
30
0
11
105.00
21
727.00
31
0
0
LINE
8
VER_BOLT
10
105.00
20
331.00
30
0
11
105.00
21
353.00
31
0
0
LINE
8
VER_BOLT
10
-45.00
20
749.00
30
0
11
-45.00
21
727.00
31
0
0
LINE
8
VER_BOLT
10
-45.00
20
331.00
30
0
11
-45.00
21
353.00
31
0
0
LINE
8
VER_BOLT
10
-105.00
20
749.00
30
0
11
-105.00
21
727.00
31
0
0
LINE
8
VER_BOLT
10
-105.00
20
331.00
30
0
11
-105.00
21
353.00
31
0
0
CIRCLE
8
BOLT
10
45.00
20
480.00
30
0
40
11.00
0
LINE
8
CEN
10
29.00
20
480.00
30
0
11
61.00
21
480.00
31
0
0
LINE
8
CEN
10
45.00
20
464.00
30
0
11
45.00
21
496.00
31
0
0
CIRCLE
8
BOLT
10
45.00
20
540.00
30
0
40
11.00
0
LINE
8
CEN
10
29.00
20
540.00
30
0
11
61.00
21
540.00
31
0
0
LINE
8
CEN
10
45.00
20
524.00
30
0
11
45.00
21
556.00
31
0
0
CIRCLE
8
BOLT
10
45.00
20
600.00
30
0
40
11.00
0
LINE
8
CEN
10
29.00
20
600.00
30
0
11
61.00
21
600.00
31
0
0
LINE
8
CEN
10
45.00
20
584.00
30
0
11
45.00
21
616.00
31
0
0
CIRCLE
8
BOLT
10
-45.00
20
480.00
30
0
40
11.00
0
LINE
8
CEN
10
-61.00
20
480.00
30
0
11
-29.00
21
480.00
31
0
0
LINE
8
CEN
10
-45.00
20
464.00
30
0
11
-45.00
21
496.00
31
0
0
CIRCLE
8
BOLT
10
-45.00
20
540.00
30
0
40
11.00
0
LINE
8
CEN
10
-61.00
20
540.00
30
0
11
-29.00
21
540.00
31
0
0
LINE
8
CEN
10
-45.00
20
524.00
30
0
11
-45.00
21
556.00
31
0
0
CIRCLE
8
BOLT
10
-45.00
20
600.00
30
0
40
11.00
0
LINE
8
CEN
10
-61.00
20
600.00
30
0
11
-29.00
21
600.00
31
0
0
LINE
8
CEN
10
-45.00
20
584.00
30
0
11
-45.00
21
616.00
31
0
0
LINE
8
DIM
10
-130.00
20
294.00
30
0
11
10.00
21
294.00
31
0
0
LINE
8
DIM
10
-134.00
20
290.00
30
0
11
-126.00
21
298.00
31
0
0
LINE
8
DIM
10
-94.00
20
290.00
30
0
11
-86.00
21
298.00
31
0
0
LINE
8
DIM
10
-34.00
20
290.00
30
0
11
-26.00
21
298.00
31
0
0
LINE
8
DIM
10
6.00
20
290.00
30
0
11
14.00
21
298.00
31
0
0
TEXT
8
DIM
10
-110.00
20
264.00
30
0
40
22.00
1
40
72
1
11
-110.00
21
264.00
31
0
0
TEXT
8
DIM
10
-60.00
20
264.00
30
0
40
22.00
1
60
72
1
11
-60.00
21
264.00
31
0
0
TEXT
8
DIM
10
-10.00
20
264.00
30
0
40
22.00
1
40
72
1
11
-10.00
21
264.00
31
0
0
LINE
8
DIM
10
174.00
20
740.00
30
0
11
174.00
21
370.00
31
0
0
LINE
8
DIM
10
170.00
20
736.00
30
0
11
178.00
21
744.00
31
0
0
LINE
8
DIM
10
170.00
20
611.00
30
0
11
178.00
21
619.00
31
0
0
LINE
8
DIM
10
170.00
20
551.00
30
0
11
178.00
21
559.00
31
0
0
LINE
8
DIM
10
170.00
20
491.00
30
0
11
178.00
21
499.00
31
0
0
LINE
8
DIM
10
170.00
20
366.00
30
0
11
178.00
21
374.00
31
0
0
LINE
8
DIM
10
170.00
20
736.00
30
0
11
178.00
21
744.00
31
0
0
LINE
8
DIM
10
170.00
20
611.00
30
0
11
178.00
21
619.00
31
0
0
LINE
8
DIM
10
170.00
20
551.00
30
0
11
178.00
21
559.00
31
0
0
LINE
8
DIM
10
170.00
20
491.00
30
0
11
178.00
21
499.00
31
0
0
LINE
8
DIM
10
170.00
20
366.00
30
0
11
178.00
21
374.00
31
0
0
TEXT
8
DIM
10
192.00
20
666.50
30
0
40
22.00
1
125
0
TEXT
8
DIM
10
192.00
20
574.00
30
0
40
22.00
1
60
0
TEXT
8
DIM
10
192.00
20
514.00
30
0
40
22.00
1
60
0
TEXT
8
DIM
10
192.00
20
421.50
30
0
40
22.00
1
125
0
TEXT
8
TEXT
10
-130.00
20
789.00
30
0
40
26.00
1
6-M20 H.T.B
0
TEXT
8
TEXT
10
-130.00
20
245.00
30
0
40
26.00
1
WEB G.PL. 9x150x260 x2EA
0
TEXT
8
TEXT
10
-145.00
20
829.00
30
0
40
30.00
1
H-400x200x8x13  SM490  M20(F10T)
0
ENDSEC
0
EOF