<svg xmlns="http://www.w3.org/2000/svg" viewBox="-285 0 535 1120" width="535" height="1120" style="background:#fff">
<line x1="133.0" y1="960.0" x2="145.0" y2="948.0" stroke="#9aa" stroke-width="0.6"/>
<line x1="121.0" y1="960.0" x2="145.0" y2="936.0" stroke="#9aa" stroke-width="0.6"/>
<line x1="109.0" y1="960.0" x2="145.0" y2="924.0" stroke="#9aa" stroke-width="0.6"/>
<line x1="97.0" y1="960.0" x2="145.0" y2="912.0" stroke="#9aa" stroke-width="0.6"/>
<line x1="85.0" y1="960.0" x2="145.0" y2="900.0" stroke="#9aa" stroke-width="0.6"/>
<line x1="73.0" y1="960.0" x2="145.0" y2="888.0" stroke="#9aa" stroke-width="0.6"/>
<line x1="61.0" y1="960.0" x2="145.0" y2="876.0" stroke="#9aa" stroke-width="0.6"/>
<line x1="49.0" y1="960.0" x2="145.0" y2="864.0" stroke="#9aa" stroke-width="0.6"/>
<line x1="37.0" y1="960.0" x2="145.0" y2="852.0" stroke="#9aa" stroke-width="0.6"/>
<line x1="25.0" y1="960.0" x2="145.0" y2="840.0" stroke="#9aa" stroke-width="0.6"/>
<line x1="13.0" y1="960.0" x2="145.0" y2="828.0" stroke="#9aa" stroke-width="0.6"/>
<line x1="1.0" y1="960.0" x2="145.0" y2="816.0" stroke="#9aa" stroke-width="0.6"/>
<line x1="-11.0" y1="960.0" x2="145.0" y2="804.0" stroke="#9aa" stroke-width="0.6"/>
<line x1="-23.0" y1="960.0" x2="145.0" y2="792.0" stroke="#9aa" stroke-width="0.6"/>
<line x1="-35.0" y1="960.0" x2="145.0" y2="780.0" stroke="#9aa" stroke-width="0.6"/>
<line x1="-47.0" y1="960.0" x2="145.0" y2="768.0" stroke="#9aa" stroke-width="0.6"/>
<line x1="-59.0" y1="960.0" x2="141.0" y2="760.0" stroke="#9aa" stroke-width="0.6"/>
<line x1="-71.0" y1="960.0" x2="129.0" y2="760.0" stroke="#9aa" stroke-width="0.6"/>
<line x1="-83.0" y1="960.0" x2="117.0" y2="760.0" stroke="#9aa" stroke-width="0.6"/>
<line x1="-95.0" y1="960.0" x2="105.0" y2="760.0" stroke="#9aa" stroke-width="0.6"/>
<line x1="-107.0" y1="960.0" x2="93.0" y2="760.0" stroke="#9aa" stroke-width="0.6"/>
<line x1="-119.0" y1="960.0" x2="81.0" y2="760.0" stroke="#9aa" stroke-width="0.6"/>
<line x1="-131.0" y1="960.0" x2="69.0" y2="760.0" stroke="#9aa" stroke-width="0.6"/>
<line x1="-143.0" y1="960.0" x2="57.0" y2="760.0" stroke="#9aa" stroke-width="0.6"/>
<line x1="-145.0" y1="950.0" x2="45.0" y2="760.0" stroke="#9aa" stroke-width="0.6"/>
<line x1="-145.0" y1="938.0" x2="33.0" y2="760.0" stroke="#9aa" stroke-width="0.6"/>
<line x1="-145.0" y1="926.0" x2="21.0" y2="760.0" stroke="#9aa" stroke-width="0.6"/>
<line x1="-145.0" y1="914.0" x2="9.0" y2="760.0" stroke="#9aa" stroke-width="0.6"/>
<line x1="-145.0" y1="902.0" x2="-3.0" y2="760.0" stroke="#9aa" stroke-width="0.6"/>
<line x1="-145.0" y1="890.0" x2="-15.0" y2="760.0" stroke="#9aa" stroke-width="0.6"/>
<line x1="-145.0" y1="878.0" x2="-27.0" y2="760.0" stroke="#9aa" stroke-width="0.6"/>
<line x1="-145.0" y1="866.0" x2="-39.0" y2="760.0" stroke="#9aa" stroke-width="0.6"/>
<line x1="-145.0" y1="854.0" x2="-51.0" y2="760.0" stroke="#9aa" stroke-width="0.6"/>
<line x1="-145.0" y1="842.0" x2="-63.0" y2="760.0" stroke="#9aa" stroke-width="0.6"/>
<line x1="-145.0" y1="830.0" x2="-75.0" y2="760.0" stroke="#9aa" stroke-width="0.6"/>
<line x1="-145.0" y1="818.0" x2="-87.0" y2="760.0" stroke="#9aa" stroke-width="0.6"/>
<line x1="-145.0" y1="806.0" x2="-99.0" y2="760.0" stroke="#9aa" stroke-width="0.6"/>
<line x1="-145.0" y1="794.0" x2="-111.0" y2="760.0" stroke="#9aa" stroke-width="0.6"/>
<line x1="-145.0" y1="782.0" x2="-123.0" y2="760.0" stroke="#9aa" stroke-width="0.6"/>
<line x1="-145.0" y1="770.0" x2="-135.0" y2="760.0" stroke="#9aa" stroke-width="0.6"/>
<line x1="-145.0" y1="960.0" x2="145.0" y2="960.0" stroke="#1d4ed8" stroke-width="1.4"/>
<line x1="145.0" y1="960.0" x2="145.0" y2="760.0" stroke="#1d4ed8" stroke-width="1.4"/>
<line x1="145.0" y1="760.0" x2="-145.0" y2="760.0" stroke="#1d4ed8" stroke-width="1.4"/>
<line x1="-145.0" y1="760.0" x2="-145.0" y2="960.0" stroke="#1d4ed8" stroke-width="1.4"/>
<line x1="0.0" y1="974.0" x2="0.0" y2="746.0" stroke="#b515b5" stroke-width="1.0" stroke-dasharray="6 2 1 2"/>
<line x1="-145.0" y1="864.0" x2="145.0" y2="864.0" stroke="#888" stroke-width="0.9" stroke-dasharray="6 3"/>
<line x1="-145.0" y1="856.0" x2="145.0" y2="856.0" stroke="#888" stroke-width="0.9" stroke-dasharray="6 3"/>
<circle cx="45.0" cy="910.0" r="11.0" fill="none" stroke="#e5231b" stroke-width="1.6"/>
<line x1="29.0" y1="910.0" x2="61.0" y2="910.0" stroke="#b515b5" stroke-width="0.9" stroke-dasharray="6 2 1 2"/>
<line x1="45.0" y1="926.0" x2="45.0" y2="894.0" stroke="#b515b5" stroke-width="0.9" stroke-dasharray="6 2 1 2"/>
<circle cx="45.0" cy="810.0" r="11.0" fill="none" stroke="#e5231b" stroke-width="1.6"/>
<line x1="29.0" y1="810.0" x2="61.0" y2="810.0" stroke="#b515b5" stroke-width="0.9" stroke-dasharray="6 2 1 2"/>
<line x1="45.0" y1="826.0" x2="45.0" y2="794.0" stroke="#b515b5" stroke-width="0.9" stroke-dasharray="6 2 1 2"/>
<circle cx="105.0" cy="910.0" r="11.0" fill="none" stroke="#e5231b" stroke-width="1.6"/>
<line x1="89.0" y1="910.0" x2="121.0" y2="910.0" stroke="#b515b5" stroke-width="0.9" stroke-dasharray="6 2 1 2"/>
<line x1="105.0" y1="926.0" x2="105.0" y2="894.0" stroke="#b515b5" stroke-width="0.9" stroke-dasharray="6 2 1 2"/>
<circle cx="105.0" cy="810.0" r="11.0" fill="none" stroke="#e5231b" stroke-width="1.6"/>
<line x1="89.0" y1="810.0" x2="121.0" y2="810.0" stroke="#b515b5" stroke-width="0.9" stroke-dasharray="6 2 1 2"/>
<line x1="105.0" y1="826.0" x2="105.0" y2="794.0" stroke="#b515b5" stroke-width="0.9" stroke-dasharray="6 2 1 2"/>
<circle cx="-45.0" cy="910.0" r="11.0" fill="none" stroke="#e5231b" stroke-width="1.6"/>
<line x1="-61.0" y1="910.0" x2="-29.0" y2="910.0" stroke="#b515b5" stroke-width="0.9" stroke-dasharray="6 2 1 2"/>
<line x1="-45.0" y1="926.0" x2="-45.0" y2="894.0" stroke="#b515b5" stroke-width="0.9" stroke-dasharray="6 2 1 2"/>
<circle cx="-45.0" cy="810.0" r="11.0" fill="none" stroke="#e5231b" stroke-width="1.6"/>
<line x1="-61.0" y1="810.0" x2="-29.0" y2="810.0" stroke="#b515b5" stroke-width="0.9" stroke-dasharray="6 2 1 2"/>
<line x1="-45.0" y1="826.0" x2="-45.0" y2="794.0" stroke="#b515b5" stroke-width="0.9" stroke-dasharray="6 2 1 2"/>
<circle cx="-105.0" cy="910.0" r="11.0" fill="none" stroke="#e5231b" stroke-width="1.6"/>
<line x1="-121.0" y1="910.0" x2="-89.0" y2="910.0" stroke="#b515b5" stroke-width="0.9" stroke-dasharray="6 2 1 2"/>
<line x1="-105.0" y1="926.0" x2="-105.0" y2="894.0" stroke="#b515b5" stroke-width="0.9" stroke-dasharray="6 2 1 2"/>
<circle cx="-105.0" cy="810.0" r="11.0" fill="none" stroke="#e5231b" stroke-width="1.6"/>
<line x1="-121.0" y1="810.0" x2="-89.0" y2="810.0" stroke="#b515b5" stroke-width="0.9" stroke-dasharray="6 2 1 2"/>
<line x1="-105.0" y1="826.0" x2="-105.0" y2="794.0" stroke="#b515b5" stroke-width="0.9" stroke-dasharray="6 2 1 2"/>
<line x1="5.0" y1="1006.0" x2="145.0" y2="1006.0" stroke="#0a7d34" stroke-width="1.0"/>
<line x1="1.0" y1="1010.0" x2="9.0" y2="1002.0" stroke="#0a7d34" stroke-width="1.0"/>
<line x1="41.0" y1="1010.0" x2="49.0" y2="1002.0" stroke="#0a7d34" stroke-width="1.0"/>
<line x1="101.0" y1="1010.0" x2="109.0" y2="1002.0" stroke="#0a7d34" stroke-width="1.0"/>
<line x1="141.0" y1="1010.0" x2="149.0" y2="1002.0" stroke="#0a7d34" stroke-width="1.0"/>
<text x="25.0" y="1030.0" font-family="Consolas,monospace" font-size="20" fill="#0a7d34" text-anchor="middle" style="">40</text>
<text x="75.0" y="1030.0" font-family="Consolas,monospace" font-size="20" fill="#0a7d34" text-anchor="middle" style="">60</text>
<text x="125.0" y="1030.0" font-family="Consolas,monospace" font-size="20" fill="#0a7d34" text-anchor="middle" style="">40</text>
<line x1="-145.0" y1="1006.0" x2="-5.0" y2="1006.0" stroke="#0a7d34" stroke-width="1.0"/>
<line x1="-149.0" y1="1010.0" x2="-141.0" y2="1002.0" stroke="#0a7d34" stroke-width="1.0"/>
<line x1="-109.0" y1="1010.0" x2="-101.0" y2="1002.0" stroke="#0a7d34" stroke-width="1.0"/>
<line x1="-49.0" y1="1010.0" x2="-41.0" y2="1002.0" stroke="#0a7d34" stroke-width="1.0"/>
<line x1="-9.0" y1="1010.0" x2="-1.0" y2="1002.0" stroke="#0a7d34" stroke-width="1.0"/>
<text x="-125.0" y="1030.0" font-family="Consolas,monospace" font-size="20" fill="#0a7d34" text-anchor="middle" style="">40</text>
<text x="-75.0" y="1030.0" font-family="Consolas,monospace" font-size="20" fill="#0a7d34" text-anchor="middle" style="">60</text>
<text x="-25.0" y="1030.0" font-family="Consolas,monospace" font-size="20" fill="#0a7d34" text-anchor="middle" style="">40</text>
<line x1="-5.0" y1="1052.0" x2="5.0" y2="1052.0" stroke="#0a7d34" stroke-width="1.0"/>
<line x1="-9.0" y1="1056.0" x2="-1.0" y2="1048.0" stroke="#0a7d34" stroke-width="1.0"/>
<line x1="1.0" y1="1056.0" x2="9.0" y2="1048.0" stroke="#0a7d34" stroke-width="1.0"/>
<text x="0.0" y="1076.0" font-family="Consolas,monospace" font-size="20" fill="#0a7d34" text-anchor="middle" style="">10</text>
<line x1="189.0" y1="760.0" x2="189.0" y2="960.0" stroke="#0a7d34" stroke-width="1.0"/>
<line x1="185.0" y1="764.0" x2="193.0" y2="756.0" stroke="#0a7d34" stroke-width="1.0"/>
<line x1="185.0" y1="814.0" x2="193.0" y2="806.0" stroke="#0a7d34" stroke-width="1.0"/>
<line x1="185.0" y1="914.0" x2="193.0" y2="906.0" stroke="#0a7d34" stroke-width="1.0"/>
<line x1="185.0" y1="964.0" x2="193.0" y2="956.0" stroke="#0a7d34" stroke-width="1.0"/>
<text x="205.0" y="778.0" font-family="Consolas,monospace" font-size="20" fill="#0a7d34" text-anchor="start" style="">50</text>
<text x="205.0" y="853.0" font-family="Consolas,monospace" font-size="20" fill="#0a7d34" text-anchor="start" style="">100</text>
<text x="205.0" y="928.0" font-family="Consolas,monospace" font-size="20" fill="#0a7d34" text-anchor="start" style="">50</text>
<text x="-145.0" y="1078.0" font-family="Consolas,monospace" font-size="24" fill="#111" text-anchor="start" style=";font-weight:700">8-M20 H.T.B</text>
<text x="-145.0" y="726.0" font-family="Consolas,monospace" font-size="24" fill="#111" text-anchor="start" style="">G.PL. 9x200x290 x2EA</text>
<line x1="-170.0" y1="120.0" x2="170.0" y2="120.0" stroke="#111" stroke-width="1.8"/>
<line x1="-170.0" y1="133.0" x2="170.0" y2="133.0" stroke="#111" stroke-width="1.2"/>
<line x1="-170.0" y1="520.0" x2="170.0" y2="520.0" stroke="#111" stroke-width="1.8"/>
<line x1="-170.0" y1="507.0" x2="170.0" y2="507.0" stroke="#111" stroke-width="1.2"/>
<line x1="137.0" y1="120.0" x2="145.0" y2="112.0" stroke="#9aa" stroke-width="0.6"/>
<line x1="129.0" y1="120.0" x2="138.0" y2="111.0" stroke="#9aa" stroke-width="0.6"/>
<line x1="121.0" y1="120.0" x2="130.0" y2="111.0" stroke="#9aa" stroke-width="0.6"/>
<line x1="113.0" y1="120.0" x2="122.0" y2="111.0" stroke="#9aa" stroke-width="0.6"/>
<line x1="105.0" y1="120.0" x2="114.0" y2="111.0" stroke="#9aa" stroke-width="0.6"/>
<line x1="97.0" y1="120.0" x2="106.0" y2="111.0" stroke="#9aa" stroke-width="0.6"/>
<line x1="89.0" y1="120.0" x2="98.0" y2="111.0" stroke="#9aa" stroke-width="0.6"/>
<line x1="81.0" y1="120.0" x2="90.0" y2="111.0" stroke="#9aa" stroke-width="0.6"/>
<line x1="73.0" y1="120.0" x2="82.0" y2="111.0" stroke="#9aa" stroke-width="0.6"/>
<line x1="65.0" y1="120.0" x2="74.0" y2="111.0" stroke="#9aa" stroke-width="0.6"/>
<line x1="57.0" y1="120.0" x2="66.0" y2="111.0" stroke="#9aa" stroke-width="0.6"/>
<line x1="49.0" y1="120.0" x2="58.0" y2="111.0" stroke="#9aa" stroke-width="0.6"/>
<line x1="41.0" y1="120.0" x2="50.0" y2="111.0" stroke="#9aa" stroke-width="0.6"/>
<line x1="33.0" y1="120.0" x2="42.0" y2="111.0" stroke="#9aa" stroke-width="0.6"/>
<line x1="25.0" y1="120.0" x2="34.0" y2="111.0" stroke="#9aa" stroke-width="0.6"/>
<line x1="17.0" y1="120.0" x2="26.0" y2="111.0" stroke="#9aa" stroke-width="0.6"/>
<line x1="9.0" y1="120.0" x2="18.0" y2="111.0" stroke="#9aa" stroke-width="0.6"/>
<line x1="1.0" y1="120.0" x2="10.0" y2="111.0" stroke="#9aa" stroke-width="0.6"/>
<line x1="-7.0" y1="120.0" x2="2.0" y2="111.0" stroke="#9aa" stroke-width="0.6"/>
<line x1="-15.0" y1="120.0" x2="-6.0" y2="111.0" stroke="#9aa" stroke-width="0.6"/>
<line x1="-23.0" y1="120.0" x2="-14.0" y2="111.0" stroke="#9aa" stroke-width="0.6"/>
<line x1="-31.0" y1="120.0" x2="-22.0" y2="111.0" stroke="#9aa" stroke-width="0.6"/>
<line x1="-39.0" y1="120.0" x2="-30.0" y2="111.0" stroke="#9aa" stroke-width="0.6"/>
<line x1="-47.0" y1="120.0" x2="-38.0" y2="111.0" stroke="#9aa" stroke-width="0.6"/>
<line x1="-55.0" y1="120.0" x2="-46.0" y2="111.0" stroke="#9aa" stroke-width="0.6"/>
<line x1="-63.0" y1="120.0" x2="-54.0" y2="111.0" stroke="#9aa" stroke-width="0.6"/>
<line x1="-71.0" y1="120.0" x2="-62.0" y2="111.0" stroke="#9aa" stroke-width="0.6"/>
<line x1="-79.0" y1="120.0" x2="-70.0" y2="111.0" stroke="#9aa" stroke-width="0.6"/>
<line x1="-87.0" y1="120.0" x2="-78.0" y2="111.0" stroke="#9aa" stroke-width="0.6"/>
<line x1="-95.0" y1="120.0" x2="-86.0" y2="111.0" stroke="#9aa" stroke-width="0.6"/>
<line x1="-103.0" y1="120.0" x2="-94.0" y2="111.0" stroke="#9aa" stroke-width="0.6"/>
<line x1="-111.0" y1="120.0" x2="-102.0" y2="111.0" stroke="#9aa" stroke-width="0.6"/>
<line x1="-119.0" y1="120.0" x2="-110.0" y2="111.0" stroke="#9aa" stroke-width="0.6"/>
<line x1="-127.0" y1="120.0" x2="-118.0" y2="111.0" stroke="#9aa" stroke-width="0.6"/>
<line x1="-135.0" y1="120.0" x2="-126.0" y2="111.0" stroke="#9aa" stroke-width="0.6"/>
<line x1="-143.0" y1="120.0" x2="-134.0" y2="111.0" stroke="#9aa" stroke-width="0.6"/>
<line x1="-145.0" y1="114.0" x2="-142.0" y2="111.0" stroke="#9aa" stroke-width="0.6"/>
<line x1="-145.0" y1="120.0" x2="145.0" y2="120.0" stroke="#1d4ed8" stroke-width="1.4"/>
<line x1="145.0" y1="120.0" x2="145.0" y2="111.0" stroke="#1d4ed8" stroke-width="1.4"/>
<line x1="145.0" y1="111.0" x2="-145.0" y2="111.0" stroke="#1d4ed8" stroke-width="1.4"/>
<line x1="-145.0" y1="111.0" x2="-145.0" y2="120.0" stroke="#1d4ed8" stroke-width="1.4"/>
<line x1="137.0" y1="529.0" x2="145.0" y2="521.0" stroke="#9aa" stroke-width="0.6"/>
<line x1="129.0" y1="529.0" x2="138.0" y2="520.0" stroke="#9aa" stroke-width="0.6"/>
<line x1="121.0" y1="529.0" x2="130.0" y2="520.0" stroke="#9aa" stroke-width="0.6"/>
<line x1="113.0" y1="529.0" x2="122.0" y2="520.0" stroke="#9aa" stroke-width="0.6"/>
<line x1="105.0" y1="529.0" x2="114.0" y2="520.0" stroke="#9aa" stroke-width="0.6"/>
<line x1="97.0" y1="529.0" x2="106.0" y2="520.0" stroke="#9aa" stroke-width="0.6"/>
<line x1="89.0" y1="529.0" x2="98.0" y2="520.0" stroke="#9aa" stroke-width="0.6"/>
<line x1="81.0" y1="529.0" x2="90.0" y2="520.0" stroke="#9aa" stroke-width="0.6"/>
<line x1="73.0" y1="529.0" x2="82.0" y2="520.0" stroke="#9aa" stroke-width="0.6"/>
<line x1="65.0" y1="529.0" x2="74.0" y2="520.0" stroke="#9aa" stroke-width="0.6"/>
<line x1="57.0" y1="529.0" x2="66.0" y2="520.0" stroke="#9aa" stroke-width="0.6"/>
<line x1="49.0" y1="529.0" x2="58.0" y2="520.0" stroke="#9aa" stroke-width="0.6"/>
<line x1="41.0" y1="529.0" x2="50.0" y2="520.0" stroke="#9aa" stroke-width="0.6"/>
<line x1="33.0" y1="529.0" x2="42.0" y2="520.0" stroke="#9aa" stroke-width="0.6"/>
<line x1="25.0" y1="529.0" x2="34.0" y2="520.0" stroke="#9aa" stroke-width="0.6"/>
<line x1="17.0" y1="529.0" x2="26.0" y2="520.0" stroke="#9aa" stroke-width="0.6"/>
<line x1="9.0" y1="529.0" x2="18.0" y2="520.0" stroke="#9aa" stroke-width="0.6"/>
<line x1="1.0" y1="529.0" x2="10.0" y2="520.0" stroke="#9aa" stroke-width="0.6"/>
<line x1="-7.0" y1="529.0" x2="2.0" y2="520.0" stroke="#9aa" stroke-width="0.6"/>
<line x1="-15.0" y1="529.0" x2="-6.0" y2="520.0" stroke="#9aa" stroke-width="0.6"/>
<line x1="-23.0" y1="529.0" x2="-14.0" y2="520.0" stroke="#9aa" stroke-width="0.6"/>
<line x1="-31.0" y1="529.0" x2="-22.0" y2="520.0" stroke="#9aa" stroke-width="0.6"/>
<line x1="-39.0" y1="529.0" x2="-30.0" y2="520.0" stroke="#9aa" stroke-width="0.6"/>
<line x1="-47.0" y1="529.0" x2="-38.0" y2="520.0" stroke="#9aa" stroke-width="0.6"/>
<line x1="-55.0" y1="529.0" x2="-46.0" y2="520.0" stroke="#9aa" stroke-width="0.6"/>
<line x1="-63.0" y1="529.0" x2="-54.0" y2="520.0" stroke="#9aa" stroke-width="0.6"/>
<line x1="-71.0" y1="529.0" x2="-62.0" y2="520.0" stroke="#9aa" stroke-width="0.6"/>
<line x1="-79.0" y1="529.0" x2="-70.0" y2="520.0" stroke="#9aa" stroke-width="0.6"/>
<line x1="-87.0" y1="529.0" x2="-78.0" y2="520.0" stroke="#9aa" stroke-width="0.6"/>
<line x1="-95.0" y1="529.0" x2="-86.0" y2="520.0" stroke="#9aa" stroke-width="0.6"/>
<line x1="-103.0" y1="529.0" x2="-94.0" y2="520.0" stroke="#9aa" stroke-width="0.6"/>
<line x1="-111.0" y1="529.0" x2="-102.0" y2="520.0" stroke="#9aa" stroke-width="0.6"/>
<line x1="-119.0" y1="529.0" x2="-110.0" y2="520.0" stroke="#9aa" stroke-width="0.6"/>
<line x1="-127.0" y1="529.0" x2="-118.0" y2="520.0" stroke="#9aa" stroke-width="0.6"/>
<line x1="-135.0" y1="529.0" x2="-126.0" y2="520.0" stroke="#9aa" stroke-width="0.6"/>
<line x1="-143.0" y1="529.0" x2="-134.0" y2="520.0" stroke="#9aa" stroke-width="0.6"/>
<line x1="-145.0" y1="523.0" x2="-142.0" y2="520.0" stroke="#9aa" stroke-width="0.6"/>
<line x1="-145.0" y1="529.0" x2="145.0" y2="529.0" stroke="#1d4ed8" stroke-width="1.4"/>
<line x1="145.0" y1="529.0" x2="145.0" y2="520.0" stroke="#1d4ed8" stroke-width="1.4"/>
<line x1="145.0" y1="520.0" x2="-145.0" y2="520.0" stroke="#1d4ed8" stroke-width="1.4"/>
<line x1="-145.0" y1="520.0" x2="-145.0" y2="529.0" stroke="#1d4ed8" stroke-width="1.4"/>
<line x1="118.0" y1="395.0" x2="130.0" y2="383.0" stroke="#9aa" stroke-width="0.6"/>
<line x1="106.0" y1="395.0" x2="130.0" y2="371.0" stroke="#9aa" stroke-width="0.6"/>
<line x1="94.0" y1="395.0" x2="130.0" y2="359.0" stroke="#9aa" stroke-width="0.6"/>
<line x1="82.0" y1="395.0" x2="130.0" y2="347.0" stroke="#9aa" stroke-width="0.6"/>
<line x1="70.0" y1="395.0" x2="130.0" y2="335.0" stroke="#9aa" stroke-width="0.6"/>
<line x1="58.0" y1="395.0" x2="130.0" y2="323.0" stroke="#9aa" stroke-width="0.6"/>
<line x1="46.0" y1="395.0" x2="130.0" y2="311.0" stroke="#9aa" stroke-width="0.6"/>
<line x1="34.0" y1="395.0" x2="130.0" y2="299.0" stroke="#9aa" stroke-width="0.6"/>
<line x1="22.0" y1="395.0" x2="130.0" y2="287.0" stroke="#9aa" stroke-width="0.6"/>
<line x1="10.0" y1="395.0" x2="130.0" y2="275.0" stroke="#9aa" stroke-width="0.6"/>
<line x1="-2.0" y1="395.0" x2="130.0" y2="263.0" stroke="#9aa" stroke-width="0.6"/>
<line x1="-14.0" y1="395.0" x2="130.0" y2="251.0" stroke="#9aa" stroke-width="0.6"/>
<line x1="-26.0" y1="395.0" x2="124.0" y2="245.0" stroke="#9aa" stroke-width="0.6"/>
<line x1="-38.0" y1="395.0" x2="112.0" y2="245.0" stroke="#9aa" stroke-width="0.6"/>
<line x1="-50.0" y1="395.0" x2="100.0" y2="245.0" stroke="#9aa" stroke-width="0.6"/>
<line x1="-62.0" y1="395.0" x2="88.0" y2="245.0" stroke="#9aa" stroke-width="0.6"/>
<line x1="-74.0" y1="395.0" x2="76.0" y2="245.0" stroke="#9aa" stroke-width="0.6"/>
<line x1="-86.0" y1="395.0" x2="64.0" y2="245.0" stroke="#9aa" stroke-width="0.6"/>
<line x1="-98.0" y1="395.0" x2="52.0" y2="245.0" stroke="#9aa" stroke-width="0.6"/>
<line x1="-110.0" y1="395.0" x2="40.0" y2="245.0" stroke="#9aa" stroke-width="0.6"/>
<line x1="-122.0" y1="395.0" x2="28.0" y2="245.0" stroke="#9aa" stroke-width="0.6"/>
<line x1="-130.0" y1="391.0" x2="16.0" y2="245.0" stroke="#9aa" stroke-width="0.6"/>
<line x1="-130.0" y1="379.0" x2="4.0" y2="245.0" stroke="#9aa" stroke-width="0.6"/>
<line x1="-130.0" y1="367.0" x2="-8.0" y2="245.0" stroke="#9aa" stroke-width="0.6"/>
<line x1="-130.0" y1="355.0" x2="-20.0" y2="245.0" stroke="#9aa" stroke-width="0.6"/>
<line x1="-130.0" y1="343.0" x2="-32.0" y2="245.0" stroke="#9aa" stroke-width="0.6"/>
<line x1="-130.0" y1="331.0" x2="-44.0" y2="245.0" stroke="#9aa" stroke-width="0.6"/>
<line x1="-130.0" y1="319.0" x2="-56.0" y2="245.0" stroke="#9aa" stroke-width="0.6"/>
<line x1="-130.0" y1="307.0" x2="-68.0" y2="245.0" stroke="#9aa" stroke-width="0.6"/>
<line x1="-130.0" y1="295.0" x2="-80.0" y2="245.0" stroke="#9aa" stroke-width="0.6"/>
<line x1="-130.0" y1="283.0" x2="-92.0" y2="245.0" stroke="#9aa" stroke-width="0.6"/>
<line x1="-130.0" y1="271.0" x2="-104.0" y2="245.0" stroke="#9aa" stroke-width="0.6"/>
<line x1="-130.0" y1="259.0" x2="-116.0" y2="245.0" stroke="#9aa" stroke-width="0.6"/>
<line x1="-130.0" y1="247.0" x2="-128.0" y2="245.0" stroke="#9aa" stroke-width="0.6"/>
<line x1="-130.0" y1="395.0" x2="130.0" y2="395.0" stroke="#0891b2" stroke-width="1.4"/>
<line x1="130.0" y1="395.0" x2="130.0" y2="245.0" stroke="#0891b2" stroke-width="1.4"/>
<line x1="130.0" y1="245.0" x2="-130.0" y2="245.0" stroke="#0891b2" stroke-width="1.4"/>
<line x1="-130.0" y1="245.0" x2="-130.0" y2="395.0" stroke="#0891b2" stroke-width="1.4"/>
<line x1="0.0" y1="538.0" x2="0.0" y2="102.0" stroke="#b515b5" stroke-width="1.0" stroke-dasharray="6 2 1 2"/>
<line x1="45.0" y1="111.0" x2="45.0" y2="133.0" stroke="#e5231b" stroke-width="1.4"/>
<line x1="45.0" y1="529.0" x2="45.0" y2="507.0" stroke="#e5231b" stroke-width="1.4"/>
<line x1="105.0" y1="111.0" x2="105.0" y2="133.0" stroke="#e5231b" stroke-width="1.4"/>
<line x1="105.0" y1="529.0" x2="105.0" y2="507.0" stroke="#e5231b" stroke-width="1.4"/>
<line x1="-45.0" y1="111.0" x2="-45.0" y2="133.0" stroke="#e5231b" stroke-width="1.4"/>
<line x1="-45.0" y1="529.0" x2="-45.0" y2="507.0" stroke="#e5231b" stroke-width="1.4"/>
<line x1="-105.0" y1="111.0" x2="-105.0" y2="133.0" stroke="#e5231b" stroke-width="1.4"/>
<line x1="-105.0" y1="529.0" x2="-105.0" y2="507.0" stroke="#e5231b" stroke-width="1.4"/>
<circle cx="45.0" cy="380.0" r="11.0" fill="none" stroke="#e5231b" stroke-width="1.6"/>
<line x1="29.0" y1="380.0" x2="61.0" y2="380.0" stroke="#b515b5" stroke-width="0.9" stroke-dasharray="6 2 1 2"/>
<line x1="45.0" y1="396.0" x2="45.0" y2="364.0" stroke="#b515b5" stroke-width="0.9" stroke-dasharray="6 2 1 2"/>
<circle cx="45.0" cy="320.0" r="11.0" fill="none" stroke="#e5231b" stroke-width="1.6"/>
<line x1="29.0" y1="320.0" x2="61.0" y2="320.0" stroke="#b515b5" stroke-width="0.9" stroke-dasharray="6 2 1 2"/>
<line x1="45.0" y1="336.0" x2="45.0" y2="304.0" stroke="#b515b5" stroke-width="0.9" stroke-dasharray="6 2 1 2"/>
<circle cx="45.0" cy="260.0" r="11.0" fill="none" stroke="#e5231b" stroke-width="1.6"/>
<line x1="29.0" y1="260.0" x2="61.0" y2="260.0" stroke="#b515b5" stroke-width="0.9" stroke-dasharray="6 2 1 2"/>
<line x1="45.0" y1="276.0" x2="45.0" y2="244.0" stroke="#b515b5" stroke-width="0.9" stroke-dasharray="6 2 1 2"/>
<circle cx="-45.0" cy="380.0" r="11.0" fill="none" stroke="#e5231b" stroke-width="1.6"/>
<line x1="-61.0" y1="380.0" x2="-29.0" y2="380.0" stroke="#b515b5" stroke-width="0.9" stroke-dasharray="6 2 1 2"/>
<line x1="-45.0" y1="396.0" x2="-45.0" y2="364.0" stroke="#b515b5" stroke-width="0.9" stroke-dasharray="6 2 1 2"/>
<circle cx="-45.0" cy="320.0" r="11.0" fill="none" stroke="#e5231b" stroke-width="1.6"/>
<line x1="-61.0" y1="320.0" x2="-29.0" y2="320.0" stroke="#b515b5" stroke-width="0.9" stroke-dasharray="6 2 1 2"/>
<line x1="-45.0" y1="336.0" x2="-45.0" y2="304.0" stroke="#b515b5" stroke-width="0.9" stroke-dasharray="6 2 1 2"/>
<circle cx="-45.0" cy="260.0" r="11.0" fill="none" stroke="#e5231b" stroke-width="1.6"/>
<line x1="-61.0" y1="260.0" x2="-29.0" y2="260.0" stroke="#b515b5" stroke-width="0.9" stroke-dasharray="6 2 1 2"/>
<line x1="-45.0" y1="276.0" x2="-45.0" y2="244.0" stroke="#b515b5" stroke-width="0.9" stroke-dasharray="6 2 1 2"/>
<line x1="-130.0" y1="566.0" x2="10.0" y2="566.0" stroke="#0a7d34" stroke-width="1.0"/>
<line x1="-134.0" y1="570.0" x2="-126.0" y2="562.0" stroke="#0a7d34" stroke-width="1.0"/>
<line x1="-94.0" y1="570.0" x2="-86.0" y2="562.0" stroke="#0a7d34" stroke-width="1.0"/>
<line x1="-34.0" y1="570.0" x2="-26.0" y2="562.0" stroke="#0a7d34" stroke-width="1.0"/>
<line x1="6.0" y1="570.0" x2="14.0" y2="562.0" stroke="#0a7d34" stroke-width="1.0"/>
<text x="-110.0" y="590.0" font-family="Consolas,monospace" font-size="20" fill="#0a7d34" text-anchor="middle" style="">40</text>
<text x="-60.0" y="590.0" font-family="Consolas,monospace" font-size="20" fill="#0a7d34" text-anchor="middle" style="">60</text>
<text x="-10.0" y="590.0" font-family="Consolas,monospace" font-size="20" fill="#0a7d34" text-anchor="middle" style="">40</text>
<line x1="-5.0" y1="612.0" x2="5.0" y2="612.0" stroke="#0a7d34" stroke-width="1.0"/>
<line x1="-9.0" y1="616.0" x2="-1.0" y2="608.0" stroke="#0a7d34" stroke-width="1.0"/>
<line x1="1.0" y1="616.0" x2="9.0" y2="608.0" stroke="#0a7d34" stroke-width="1.0"/>
<text x="0.0" y="636.0" font-family="Consolas,monospace" font-size="20" fill="#0a7d34" text-anchor="middle" style="">10</text>
<line x1="174.0" y1="120.0" x2="174.0" y2="490.0" stroke="#0a7d34" stroke-width="1.0"/>
<line x1="170.0" y1="124.0" x2="178.0" y2="116.0" stroke="#0a7d34" stroke-width="1.0"/>
<line x1="170.0" y1="249.0" x2="178.0" y2="241.0" stroke="#0a7d34" stroke-width="1.0"/>
<line x1="170.0" y1="309.0" x2="178.0" y2="301.0" stroke="#0a7d34" stroke-width="1.0"/>
<line x1="170.0" y1="369.0" x2="178.0" y2="361.0" stroke="#0a7d34" stroke-width="1.0"/>
<line x1="170.0" y1="494.0" x2="178.0" y2="486.0" stroke="#0a7d34" stroke-width="1.0"/>
<text x="190.0" y="175.5" font-family="Consolas,monospace" font-size="20" fill="#0a7d34" text-anchor="start" style="">125</text>
<text x="190.0" y="268.0" font-family="Consolas,monospace" font-size="20" fill="#0a7d34" text-anchor="start" style="">60</text>
<text x="190.0" y="328.0" font-family="Consolas,monospace" font-size="20" fill="#0a7d34" text-anchor="start" style="">60</text>
<text x="190.0" y="420.5" font-family="Consolas,monospace" font-size="20" fill="#0a7d34" text-anchor="start" style="">125</text>
<text x="-130.0" y="71.0" font-family="Consolas,monospace" font-size="24" fill="#111" text-anchor="start" style=";font-weight:700">6-M20 H.T.B</text>
<text x="-130.0" y="612.0" font-family="Consolas,monospace" font-size="24" fill="#111" text-anchor="start" style="">WEB G.PL. 9x150x260 x2EA</text>
<text x="-145.0" y="33.0" font-family="Consolas,monospace" font-size="28" fill="#111" text-anchor="start" style=";font-weight:700">H-400x200x8x13  SM490  M20(F10T)</text>
</svg>